<?xml version="1.0" encoding="UTF-8"?>
<!DOCTYPE svg PUBLIC "-//W3C//DTD SVG 1.1//EN" "http://www.w3.org/Graphics/SVG/1.1/DTD/svg11.dtd">
<svg xmlns="http://www.w3.org/2000/svg" version="1.1" width="1080px" height="1080px" style="shape-rendering:geometricPrecision; text-rendering:geometricPrecision; image-rendering:optimizeQuality; fill-rule:evenodd; clip-rule:evenodd" xmlns:xlink="http://www.w3.org/1999/xlink">
<g><path style="opacity:1" fill="#fefefe" d="M -0.5,-0.5 C 359.5,-0.5 719.5,-0.5 1079.5,-0.5C 1079.5,359.5 1079.5,719.5 1079.5,1079.5C 719.5,1079.5 359.5,1079.5 -0.5,1079.5C -0.5,719.5 -0.5,359.5 -0.5,-0.5 Z"/></g>
<g><path style="opacity:1" fill="#6d6d6d" d="M 634.5,303.5 C 526.802,302.184 419.136,302.184 311.5,303.5C 311.611,302.883 311.944,302.383 312.5,302C 417.833,301.333 523.167,301.333 628.5,302C 630.708,302.191 632.708,302.691 634.5,303.5 Z"/></g>
<g><path style="opacity:1" fill="#040404" d="M 634.5,303.5 C 636.167,303.5 637.833,303.5 639.5,303.5C 646.943,305.377 654.61,306.71 662.5,307.5C 666.983,308.998 671.649,309.998 676.5,310.5C 678.515,311.924 680.848,312.59 683.5,312.5C 685.515,313.924 687.848,314.59 690.5,314.5C 766.166,340.833 820.5,390.5 853.5,463.5C 853.166,466.491 854.166,468.824 856.5,470.5C 857.738,472.214 858.405,474.214 858.5,476.5C 859.589,481.767 861.256,486.767 863.5,491.5C 863.41,494.152 864.076,496.485 865.5,498.5C 866.913,501.219 867.58,504.219 867.5,507.5C 867.41,510.152 868.076,512.485 869.5,514.5C 871.429,522.344 872.429,530.344 872.5,538.5C 872.5,544.167 872.5,549.833 872.5,555.5C 870.801,555.34 869.134,555.506 867.5,556C 866.387,559.588 864.72,560.088 862.5,557.5C 860.955,556.548 859.288,556.215 857.5,556.5C 857.334,562.842 857.5,569.175 858,575.5C 859.699,576.406 861.533,576.739 863.5,576.5C 863.334,571.821 863.501,567.155 864,562.5C 866.993,559.696 869.659,560.029 872,563.5C 872.832,571.483 873.332,579.483 873.5,587.5C 873.5,589.167 873.5,590.833 873.5,592.5C 871.45,598.526 870.45,604.859 870.5,611.5C 867.347,630.939 862.014,649.605 854.5,667.5C 852.935,669.509 851.935,671.843 851.5,674.5C 810.471,760.047 743.137,811.38 649.5,828.5C 644.662,828.911 639.995,829.578 635.5,830.5C 527.842,831.643 420.175,831.81 312.5,831C 292.277,795.381 271.944,759.881 251.5,724.5C 280.338,672.816 309.672,621.482 339.5,570.5C 340.906,570.027 341.573,569.027 341.5,567.5C 350.057,552.058 358.89,536.725 368,521.5C 368.667,520.167 368.667,518.833 368,517.5C 349.573,516.673 331.073,516.173 312.5,516C 299.339,492.687 286.005,469.52 272.5,446.5C 272.573,444.973 271.906,443.973 270.5,443.5C 264.057,432.119 257.724,420.619 251.5,409C 261.872,389.084 272.872,369.584 284.5,350.5C 285.906,350.027 286.573,349.027 286.5,347.5C 294.821,332.861 303.155,318.194 311.5,303.5C 419.136,302.184 526.802,302.184 634.5,303.5 Z"/></g>
<g><path style="opacity:1" fill="#898989" d="M 639.5,303.5 C 644.859,303.67 650.192,304.17 655.5,305C 658.191,305.156 660.524,305.989 662.5,307.5C 654.61,306.71 646.943,305.377 639.5,303.5 Z"/></g>
<g><path style="opacity:1" fill="#181818" d="M 574.5,328.5 C 567.833,328.5 561.167,328.5 554.5,328.5C 555.271,326.886 556.271,325.386 557.5,324C 553.461,315.755 555.961,311.255 565,310.5C 571.303,309.439 574.47,312.105 574.5,318.5C 574.213,320.486 573.547,322.32 572.5,324C 573.707,325.3 574.374,326.8 574.5,328.5 Z"/></g>
<g><path style="opacity:1" fill="#878787" d="M 676.5,310.5 C 679.152,310.41 681.485,311.076 683.5,312.5C 680.848,312.59 678.515,311.924 676.5,310.5 Z"/></g>
<g><path style="opacity:1" fill="#8a8a8a" d="M 683.5,312.5 C 686.152,312.41 688.485,313.076 690.5,314.5C 687.848,314.59 685.515,313.924 683.5,312.5 Z"/></g>
<g><path style="opacity:1" fill="#fcfcfc" d="M 554.5,328.5 C 561.167,328.5 567.833,328.5 574.5,328.5C 617.122,325.549 658.456,331.382 698.5,346C 708.082,349.463 717.082,353.963 725.5,359.5C 726.09,360.766 726.59,362.099 727,363.5C 727.5,375.829 727.667,388.162 727.5,400.5C 655.5,401.167 655.5,401.833 727.5,402.5C 727.18,413.082 727.513,423.582 728.5,434C 727.572,434.388 726.905,435.055 726.5,436C 727.205,437.422 727.539,438.755 727.5,440C 726.906,440.464 726.239,440.631 725.5,440.5C 713.166,430.001 699.833,421.001 685.5,413.5C 684.91,412.234 684.41,410.901 684,409.5C 683.439,410.022 682.772,410.355 682,410.5C 679.681,409.129 677.181,408.462 674.5,408.5C 657.737,400.894 640.07,396.894 621.5,396.5C 542.002,395.501 462.335,395.167 382.5,395.5C 369.989,374.48 357.989,353.147 346.5,331.5C 346.818,330.353 347.484,329.519 348.5,329C 417.166,328.5 485.833,328.333 554.5,328.5 Z"/></g>
<g><path style="opacity:1" fill="#797979" d="M 286.5,347.5 C 286.573,349.027 285.906,350.027 284.5,350.5C 284.427,348.973 285.094,347.973 286.5,347.5 Z"/></g>
<g><path style="opacity:1" fill="#babbbe" d="M 354.5,400.5 C 354.932,401.71 355.599,402.71 356.5,403.5C 358.218,405.926 358.718,408.593 358,411.5C 346.167,431.833 334.333,452.167 322.5,472.5C 320.994,473.747 319.494,473.747 318,472.5C 306.586,452.004 294.919,431.67 283,411.5C 282.333,409.5 282.333,407.5 283,405.5C 294.758,386.991 305.758,367.991 316,348.5C 320.117,344.256 323.45,344.922 326,350.5C 335.765,367.031 345.265,383.698 354.5,400.5 Z"/></g>
<g><path style="opacity:1" fill="#fbfbfb" d="M 731.5,363.5 C 748.527,372.523 763.527,384.19 776.5,398.5C 775.737,399.268 774.737,399.768 773.5,400C 759.171,400.5 744.837,400.667 730.5,400.5C 730.171,387.989 730.505,375.655 731.5,363.5 Z"/></g>
<g><path style="opacity:1" fill="#262627" d="M 382.5,395.5 C 462.335,395.167 542.002,395.501 621.5,396.5C 605.833,396.5 590.167,396.5 574.5,396.5C 574.551,398.57 573.885,400.403 572.5,402C 575.084,405.717 575.084,409.383 572.5,413C 566.956,414.404 561.29,414.904 555.5,414.5C 555.5,412.833 555.5,411.167 555.5,409.5C 559.884,409.826 564.217,409.492 568.5,408.5C 571.093,405.979 571.093,403.479 568.5,401C 564.179,400.501 559.846,400.334 555.5,400.5C 555.5,399.167 555.5,397.833 555.5,396.5C 503.5,396.5 451.5,396.5 399.5,396.5C 399.5,397.833 399.5,399.167 399.5,400.5C 416.846,400.167 434.179,400.5 451.5,401.5C 433.846,402.5 416.179,402.833 398.5,402.5C 398.5,408.833 398.5,415.167 398.5,421.5C 472.335,421.167 546.002,421.501 619.5,422.5C 540.5,422.5 461.5,422.5 382.5,422.5C 387.305,421.513 392.305,421.179 397.5,421.5C 397.5,415.167 397.5,408.833 397.5,402.5C 383.656,402.171 369.99,402.504 356.5,403.5C 355.599,402.71 354.932,401.71 354.5,400.5C 368.5,400.5 382.5,400.5 396.5,400.5C 396.5,399.167 396.5,397.833 396.5,396.5C 391.637,396.819 386.97,396.486 382.5,395.5 Z"/></g>
<g><path style="opacity:1" fill="#eeeeee" d="M 725.5,359.5 C 728.05,360.057 730.05,361.39 731.5,363.5C 730.505,375.655 730.171,387.989 730.5,400.5C 744.837,400.667 759.171,400.5 773.5,400C 774.737,399.768 775.737,399.268 776.5,398.5C 778.5,399.833 780.167,401.5 781.5,403.5C 764.5,403.5 747.5,403.5 730.5,403.5C 730.5,417.5 730.5,431.5 730.5,445.5C 728.5,444.167 726.833,442.5 725.5,440.5C 726.239,440.631 726.906,440.464 727.5,440C 727.539,438.755 727.205,437.422 726.5,436C 726.905,435.055 727.572,434.388 728.5,434C 727.513,423.582 727.18,413.082 727.5,402.5C 655.5,401.833 655.5,401.167 727.5,400.5C 727.667,388.162 727.5,375.829 727,363.5C 726.59,362.099 726.09,360.766 725.5,359.5 Z"/></g>
<g><path style="opacity:1" fill="#b8b8b8" d="M 674.5,408.5 C 677.181,408.462 679.681,409.129 682,410.5C 682.772,410.355 683.439,410.022 684,409.5C 684.41,410.901 684.91,412.234 685.5,413.5C 681.646,412.07 677.979,410.403 674.5,408.5 Z"/></g>
<g><path style="opacity:1" fill="#9d9d9f" d="M 382.5,422.5 C 461.5,422.5 540.5,422.5 619.5,422.5C 620.791,422.263 621.791,422.596 622.5,423.5C 541.688,422.846 461.022,423.512 380.5,425.5C 380.427,423.973 381.094,422.973 382.5,422.5 Z"/></g>
<g><path style="opacity:1" fill="#777777" d="M 270.5,443.5 C 271.906,443.973 272.573,444.973 272.5,446.5C 271.094,446.027 270.427,445.027 270.5,443.5 Z"/></g>
<g><path style="opacity:1" fill="#535353" d="M 853.5,463.5 C 855.065,465.509 856.065,467.843 856.5,470.5C 854.166,468.824 853.166,466.491 853.5,463.5 Z"/></g>
<g><path style="opacity:1" fill="#606060" d="M 858.5,476.5 C 861.14,481.085 862.806,486.085 863.5,491.5C 861.256,486.767 859.589,481.767 858.5,476.5 Z"/></g>
<g><path style="opacity:1" fill="#a9aaae" d="M 347.5,488.5 C 437.834,488.333 528.167,488.5 618.5,489C 619.737,489.232 620.737,489.732 621.5,490.5C 530.02,489.843 438.687,489.177 347.5,488.5 Z"/></g>
<g><path style="opacity:1" fill="#575757" d="M 863.5,491.5 C 864.924,493.515 865.59,495.848 865.5,498.5C 864.076,496.485 863.41,494.152 863.5,491.5 Z"/></g>
<g><path style="opacity:1" fill="#5e5e5e" d="M 867.5,507.5 C 868.924,509.515 869.59,511.848 869.5,514.5C 868.076,512.485 867.41,510.152 867.5,507.5 Z"/></g>
<g><path style="opacity:1" fill="#cacaca" d="M 583.5,517.5 C 558.34,516.874 533.34,517.541 508.5,519.5C 508.414,518.504 508.748,517.671 509.5,517C 534.337,516.17 559.003,516.337 583.5,517.5 Z"/></g>
<g><path style="opacity:1" fill="#191919" d="M 377.5,557.5 C 373.738,564.698 369.738,571.698 365.5,578.5C 362.843,576.083 360.009,573.75 357,571.5C 355.945,566.313 356.778,561.48 359.5,557C 363.737,556.196 367.737,556.696 371.5,558.5C 371.5,555.833 371.5,553.167 371.5,550.5C 373.167,550.5 374.833,550.5 376.5,550.5C 376.714,552.144 376.38,553.644 375.5,555C 376.066,555.995 376.733,556.828 377.5,557.5 Z"/></g>
<g><path style="opacity:1" fill="#242424" d="M 847.5,556.5 C 849.167,556.5 850.833,556.5 852.5,556.5C 852.5,562.833 852.5,569.167 852.5,575.5C 850.708,575.366 849.042,575.699 847.5,576.5C 847.5,569.833 847.5,563.167 847.5,556.5 Z"/></g>
<g><path style="opacity:1" fill="#212121" d="M 872.5,538.5 C 873.302,539.952 873.802,541.618 874,543.5C 874.828,558.339 874.661,573.006 873.5,587.5C 873.332,579.483 872.832,571.483 872,563.5C 869.659,560.029 866.993,559.696 864,562.5C 863.501,567.155 863.334,571.821 863.5,576.5C 861.533,576.739 859.699,576.406 858,575.5C 857.5,569.175 857.334,562.842 857.5,556.5C 859.288,556.215 860.955,556.548 862.5,557.5C 864.72,560.088 866.387,559.588 867.5,556C 869.134,555.506 870.801,555.34 872.5,555.5C 872.5,549.833 872.5,544.167 872.5,538.5 Z"/></g>
<g><path style="opacity:1" fill="#bbbcc0" d="M 365.5,578.5 C 369.738,571.698 373.738,564.698 377.5,557.5C 385.111,543.78 393.111,530.28 401.5,517C 426.498,516.5 451.498,516.333 476.5,516.5C 476.662,518.527 476.495,520.527 476,522.5C 424.818,610.869 373.652,699.202 322.5,787.5C 321.277,788.614 319.944,788.781 318.5,788C 306.621,768.412 295.121,748.579 284,728.5C 282.627,726.305 282.294,723.971 283,721.5C 310.512,673.806 338.012,626.139 365.5,578.5 Z"/></g>
<g><path style="opacity:1" fill="#9c9c9c" d="M 845.5,538.5 C 847.057,544.261 847.724,550.261 847.5,556.5C 847.5,563.167 847.5,569.833 847.5,576.5C 847.819,581.363 847.486,586.03 846.5,590.5C 846.674,573.152 846.341,555.819 845.5,538.5 Z"/></g>
<g><path style="opacity:1" fill="#bbbcc0" d="M 622.5,423.5 C 676.735,429.689 716.235,457.022 741,505.5C 754.124,534.353 757.624,564.353 751.5,595.5C 750.883,595.611 750.383,595.944 750,596.5C 748.596,602.874 747.096,609.207 745.5,615.5C 730.707,654.796 704.041,682.962 665.5,700C 651.1,706.133 636.1,709.8 620.5,711C 583.5,711.667 546.5,711.667 509.5,711C 507.675,709.534 507.175,707.701 508,705.5C 520.212,685.58 532.045,665.413 543.5,645C 568.167,644.667 592.833,644.333 617.5,644C 654.585,637.636 677.252,616.136 685.5,579.5C 687.025,575.272 687.692,570.772 687.5,566C 687.498,562.648 687.165,559.482 686.5,556.5C 686.595,553.303 685.928,550.303 684.5,547.5C 683.975,543.467 682.642,539.8 680.5,536.5C 668.605,511.366 648.938,496.032 621.5,490.5C 620.737,489.732 619.737,489.232 618.5,489C 528.167,488.5 437.834,488.333 347.5,488.5C 346.378,486.712 346.211,484.712 347,482.5C 358.193,463.437 369.36,444.437 380.5,425.5C 461.022,423.512 541.688,422.846 622.5,423.5 Z"/></g>
<g><path style="opacity:1" fill="#777777" d="M 341.5,567.5 C 341.573,569.027 340.906,570.027 339.5,570.5C 339.427,568.973 340.094,567.973 341.5,567.5 Z"/></g>
<g><path style="opacity:1" fill="#5a5a5a" d="M 845.5,597.5 C 845.665,600.518 845.498,603.518 845,606.5C 844.722,607.416 844.222,608.082 843.5,608.5C 843.808,604.64 844.475,600.974 845.5,597.5 Z"/></g>
<g><path style="opacity:1" fill="#3f3f3f" d="M 873.5,592.5 C 873.06,599.053 872.06,605.387 870.5,611.5C 870.45,604.859 871.45,598.526 873.5,592.5 Z"/></g>
<g><path style="opacity:1" fill="#fdfdfd" d="M 781.5,403.5 C 818.075,440.994 839.408,485.994 845.5,538.5C 846.341,555.819 846.674,573.152 846.5,590.5C 845.532,592.607 845.198,594.941 845.5,597.5C 844.475,600.974 843.808,604.64 843.5,608.5C 842.908,611.127 842.575,613.794 842.5,616.5C 840.742,619.854 839.742,623.521 839.5,627.5C 820.899,692.275 782.565,741.441 724.5,775C 713.985,780.331 703.318,785.164 692.5,789.5C 687.856,790.599 683.522,792.266 679.5,794.5C 675.345,795.954 671.012,796.954 666.5,797.5C 662.521,797.742 658.854,798.742 655.5,800.5C 642.267,802.821 628.934,804.154 615.5,804.5C 526.5,804.5 437.5,804.5 348.5,804.5C 346.032,802.158 345.866,799.492 348,796.5C 360.445,775.935 372.612,755.268 384.5,734.5C 388.5,734.5 392.5,734.5 396.5,734.5C 396.5,752.167 396.5,769.833 396.5,787.5C 397.5,787.5 398.5,787.5 399.5,787.5C 399.5,769.833 399.5,752.167 399.5,734.5C 417.167,734.5 434.833,734.5 452.5,734.5C 452.5,733.5 452.5,732.5 452.5,731.5C 434.833,731.5 417.167,731.5 399.5,731.5C 399.754,723.678 399.754,716.011 399.5,708.5C 435.079,645.002 471.412,582.002 508.5,519.5C 533.34,517.541 558.34,516.874 583.5,517.5C 584.598,518.601 584.765,519.934 584,521.5C 560.318,561.53 537.151,601.863 514.5,642.5C 513.094,642.973 512.427,643.973 512.5,645.5C 495.774,673.941 479.274,702.607 463,731.5C 462.505,733.473 462.338,735.473 462.5,737.5C 493.167,737.5 523.833,737.5 554.5,737.5C 561.167,737.5 567.833,737.5 574.5,737.5C 590.167,737.5 605.833,737.5 621.5,737.5C 626.511,737.666 631.511,737.499 636.5,737C 637.737,736.768 638.737,736.268 639.5,735.5C 647.312,733.214 655.312,731.214 663.5,729.5C 667.553,728.65 671.553,727.484 675.5,726C 676.056,725.617 676.389,725.117 676.5,724.5C 723.812,702.679 755.979,667.012 773,617.5C 774.693,611.532 776.193,605.532 777.5,599.5C 779.872,593.519 780.872,587.185 780.5,580.5C 780.828,569.321 780.495,558.321 779.5,547.5C 774.922,507.682 758.589,473.682 730.5,445.5C 730.5,431.5 730.5,417.5 730.5,403.5C 747.5,403.5 764.5,403.5 781.5,403.5 Z"/></g>
<g><path style="opacity:1" fill="#7a7b7c" d="M 751.5,595.5 C 750.41,602.548 748.41,609.215 745.5,615.5C 747.096,609.207 748.596,602.874 750,596.5C 750.383,595.944 750.883,595.611 751.5,595.5 Z"/></g>
<g><path style="opacity:1" fill="#a3a3a3" d="M 779.5,580.5 C 779.833,580.5 780.167,580.5 780.5,580.5C 780.872,587.185 779.872,593.519 777.5,599.5C 778.541,593.21 779.208,586.877 779.5,580.5 Z"/></g>
<g><path style="opacity:1" fill="#606064" d="M 686.5,556.5 C 687.165,559.482 687.498,562.648 687.5,566C 687.692,570.772 687.025,575.272 685.5,579.5C 686.313,571.862 686.646,564.196 686.5,556.5 Z"/></g>
<g><path style="opacity:1" fill="#1b1b1b" d="M 779.5,547.5 C 780.495,558.321 780.828,569.321 780.5,580.5C 780.167,580.5 779.833,580.5 779.5,580.5C 779.5,579.167 779.5,577.833 779.5,576.5C 770.164,574.834 767.33,569.501 771,560.5C 773.134,558.516 775.634,557.182 778.5,556.5C 779.484,553.572 779.817,550.572 779.5,547.5 Z"/></g>
<g><path style="opacity:1" fill="#1c1c1c" d="M 760.5,550.5 C 762.167,550.5 763.833,550.5 765.5,550.5C 765.5,558.833 765.5,567.167 765.5,575.5C 763.833,575.5 762.167,575.5 760.5,575.5C 760.5,567.167 760.5,558.833 760.5,550.5 Z"/></g>
<g><path style="opacity:1" fill="#3c3c3d" d="M 680.5,536.5 C 682.642,539.8 683.975,543.467 684.5,547.5C 682.358,544.2 681.025,540.533 680.5,536.5 Z"/></g>
<g><path style="opacity:1" fill="#fbfbfb" d="M 617.5,517.5 C 639.935,522.432 654.101,536.099 660,558.5C 661.949,586.12 650.116,604.953 624.5,615C 621.471,615.539 618.471,616.206 615.5,617C 598.167,617.667 580.833,617.667 563.5,617C 562.203,614.455 562.369,611.955 564,609.5C 582.097,578.97 599.931,548.303 617.5,517.5 Z"/></g>
<g><path style="opacity:1" fill="#414141" d="M 842.5,616.5 C 842.251,619.002 841.917,621.502 841.5,624C 841.392,625.681 840.725,626.848 839.5,627.5C 839.742,623.521 840.742,619.854 842.5,616.5 Z"/></g>
<g><path style="opacity:1" fill="#777777" d="M 514.5,642.5 C 514.573,644.027 513.906,645.027 512.5,645.5C 512.427,643.973 513.094,642.973 514.5,642.5 Z"/></g>
<g><path style="opacity:1" fill="#a1a1a1" d="M 854.5,667.5 C 854.834,670.491 853.834,672.824 851.5,674.5C 851.935,671.843 852.935,669.509 854.5,667.5 Z"/></g>
<g><path style="opacity:1" fill="#eeeeee" d="M 399.5,708.5 C 399.754,716.011 399.754,723.678 399.5,731.5C 417.167,731.5 434.833,731.5 452.5,731.5C 452.5,732.5 452.5,733.5 452.5,734.5C 434.833,734.5 417.167,734.5 399.5,734.5C 399.5,752.167 399.5,769.833 399.5,787.5C 398.5,787.5 397.5,787.5 396.5,787.5C 396.5,769.833 396.5,752.167 396.5,734.5C 392.5,734.5 388.5,734.5 384.5,734.5C 388.677,725.332 393.677,716.665 399.5,708.5 Z"/></g>
<g><path style="opacity:1" fill="#1b1b1b" d="M 574.5,737.5 C 567.833,737.5 561.167,737.5 554.5,737.5C 554.449,735.43 555.115,733.597 556.5,732C 554.016,728.334 553.849,724.501 556,720.5C 561.659,718.742 567.492,718.076 573.5,718.5C 573.5,720.167 573.5,721.833 573.5,723.5C 569.486,723.334 565.486,723.501 561.5,724C 559.464,726.5 559.13,729.167 560.5,732C 565.155,732.499 569.821,732.666 574.5,732.5C 574.5,734.167 574.5,735.833 574.5,737.5 Z"/></g>
<g><path style="opacity:1" fill="#b5b5b5" d="M 676.5,724.5 C 676.389,725.117 676.056,725.617 675.5,726C 671.553,727.484 667.553,728.65 663.5,729.5C 667.522,727.266 671.856,725.599 676.5,724.5 Z"/></g>
<g><path style="opacity:1" fill="#b6b6b6" d="M 639.5,735.5 C 638.737,736.268 637.737,736.768 636.5,737C 631.511,737.499 626.511,737.666 621.5,737.5C 627.331,736.585 633.331,735.918 639.5,735.5 Z"/></g>
<g><path style="opacity:1" fill="#3f3f3f" d="M 692.5,789.5 C 688.794,792.509 684.461,794.176 679.5,794.5C 683.522,792.266 687.856,790.599 692.5,789.5 Z"/></g>
<g><path style="opacity:1" fill="#757575" d="M 666.5,797.5 C 663.146,799.258 659.479,800.258 655.5,800.5C 658.854,798.742 662.521,797.742 666.5,797.5 Z"/></g>
<g><path style="opacity:1" fill="#2b2b2b" d="M 348.5,804.5 C 437.5,804.5 526.5,804.5 615.5,804.5C 601.677,805.496 587.677,805.829 573.5,805.5C 573.52,807.143 572.853,808.476 571.5,809.5C 575.794,817.271 573.627,821.938 565,823.5C 561.421,823.126 558.254,821.793 555.5,819.5C 555.172,814.824 554.839,810.157 554.5,805.5C 485.665,805.833 416.998,805.499 348.5,804.5 Z"/></g>
<g><path style="opacity:1" fill="#bababa" d="M 649.5,828.5 C 649.082,829.222 648.416,829.722 647.5,830C 643.514,830.499 639.514,830.666 635.5,830.5C 639.995,829.578 644.662,828.911 649.5,828.5 Z"/></g>
</svg>
