<?xml version="1.0" encoding="UTF-8"?>
<!DOCTYPE svg PUBLIC "-//W3C//DTD SVG 1.1//EN" "http://www.w3.org/Graphics/SVG/1.1/DTD/svg11.dtd">
<svg xmlns="http://www.w3.org/2000/svg" version="1.1" width="131px" height="133px" style="shape-rendering:geometricPrecision; text-rendering:geometricPrecision; image-rendering:optimizeQuality; fill-rule:evenodd; clip-rule:evenodd" xmlns:xlink="http://www.w3.org/1999/xlink">
<g><path style="opacity:1" fill="#fafafa" d="M -0.5,-0.5 C 43.1667,-0.5 86.8333,-0.5 130.5,-0.5C 130.5,18.8333 130.5,38.1667 130.5,57.5C 122.604,26.9464 102.938,9.27977 71.5,4.5C 56.3424,3.5038 41.0091,3.17047 25.5,3.5C 25.1688,30.0053 25.5022,56.3386 26.5,82.5C 30.5,82.5 34.5,82.5 38.5,82.5C 39.4973,61.0064 39.8307,39.3398 39.5,17.5C 50.1667,17.5 60.8333,17.5 71.5,17.5C 94.9865,21.8148 110.153,35.4815 117,58.5C 120.756,81.0746 117.089,102.075 106,121.5C 118.328,110.638 126.495,97.3043 130.5,81.5C 130.5,98.5 130.5,115.5 130.5,132.5C 110.167,132.5 89.8333,132.5 69.5,132.5C 88.0208,124.807 99.5208,111.14 104,91.5C 104.667,81.1667 104.667,70.8333 104,60.5C 94.9678,37.0526 77.8011,27.0526 52.5,30.5C 51.5151,34.6344 51.1818,38.9677 51.5,43.5C 57.5,43.5 63.5,43.5 69.5,43.5C 79.9242,46.0878 87.0909,52.4212 91,62.5C 92.0888,73.9567 91.4221,85.29 89,96.5C 83.0573,110.563 72.5573,119.063 57.5,122C 38.1695,122.5 18.8362,122.667 -0.5,122.5C -0.5,118.167 -0.5,113.833 -0.5,109.5C 18.5029,109.667 37.5029,109.5 56.5,109C 65.1342,107.178 71.1342,102.345 74.5,94.5C 53.8668,95.4655 33.2001,95.7988 12.5,95.5C 12.5,64.8333 12.5,34.1667 12.5,3.5C 8.16667,3.5 3.83333,3.5 -0.5,3.5C -0.5,2.16667 -0.5,0.833333 -0.5,-0.5 Z"/></g>
<g><path style="opacity:1" fill="#0e0d0d" d="M -0.5,3.5 C 3.83333,3.5 8.16667,3.5 12.5,3.5C 12.5,34.1667 12.5,64.8333 12.5,95.5C 33.2001,95.7988 53.8668,95.4655 74.5,94.5C 71.1342,102.345 65.1342,107.178 56.5,109C 37.5029,109.5 18.5029,109.667 -0.5,109.5C -0.5,74.1667 -0.5,38.8333 -0.5,3.5 Z"/></g>
<g><path style="opacity:1" fill="#0a0809" d="M 71.5,4.5 C 102.938,9.27977 122.604,26.9464 130.5,57.5C 130.5,65.5 130.5,73.5 130.5,81.5C 126.495,97.3043 118.328,110.638 106,121.5C 117.089,102.075 120.756,81.0746 117,58.5C 110.153,35.4815 94.9865,21.8148 71.5,17.5C 60.6794,16.5054 49.6794,16.1721 38.5,16.5C 38.5,38.5 38.5,60.5 38.5,82.5C 34.5,82.5 30.5,82.5 26.5,82.5C 26.5,56.5 26.5,30.5 26.5,4.5C 41.5,4.5 56.5,4.5 71.5,4.5 Z"/></g>
<g><path style="opacity:1" fill="#4c4c4c" d="M 71.5,4.5 C 56.5,4.5 41.5,4.5 26.5,4.5C 26.5,30.5 26.5,56.5 26.5,82.5C 25.5022,56.3386 25.1688,30.0053 25.5,3.5C 41.0091,3.17047 56.3424,3.5038 71.5,4.5 Z"/></g>
<g><path style="opacity:1" fill="#939393" d="M 71.5,17.5 C 60.8333,17.5 50.1667,17.5 39.5,17.5C 39.8307,39.3398 39.4973,61.0064 38.5,82.5C 38.5,60.5 38.5,38.5 38.5,16.5C 49.6794,16.1721 60.6794,16.5054 71.5,17.5 Z"/></g>
<g><path style="opacity:1" fill="#0a0809" d="M 52.5,30.5 C 77.8011,27.0526 94.9678,37.0526 104,60.5C 104.667,70.8333 104.667,81.1667 104,91.5C 99.5208,111.14 88.0208,124.807 69.5,132.5C 46.1667,132.5 22.8333,132.5 -0.5,132.5C -0.5,129.167 -0.5,125.833 -0.5,122.5C 18.8362,122.667 38.1695,122.5 57.5,122C 72.5573,119.063 83.0573,110.563 89,96.5C 91.4221,85.29 92.0888,73.9567 91,62.5C 87.0909,52.4212 79.9242,46.0878 69.5,43.5C 64.0247,42.5111 58.358,42.1778 52.5,42.5C 52.5,38.5 52.5,34.5 52.5,30.5 Z"/></g>
<g><path style="opacity:1" fill="#5d5d5d" d="M 52.5,30.5 C 52.5,34.5 52.5,38.5 52.5,42.5C 58.358,42.1778 64.0247,42.5111 69.5,43.5C 63.5,43.5 57.5,43.5 51.5,43.5C 51.1818,38.9677 51.5151,34.6344 52.5,30.5 Z"/></g>
</svg>
