<?xml version="1.0" encoding="UTF-8"?>
<!DOCTYPE svg PUBLIC "-//W3C//DTD SVG 1.1//EN" "http://www.w3.org/Graphics/SVG/1.1/DTD/svg11.dtd">
<svg xmlns="http://www.w3.org/2000/svg" version="1.1" width="1080px" height="1080px" style="shape-rendering:geometricPrecision; text-rendering:geometricPrecision; image-rendering:optimizeQuality; fill-rule:evenodd; clip-rule:evenodd" xmlns:xlink="http://www.w3.org/1999/xlink">
<g><path style="opacity:1" fill="#fefefe" d="M -0.5,-0.5 C 359.5,-0.5 719.5,-0.5 1079.5,-0.5C 1079.5,359.5 1079.5,719.5 1079.5,1079.5C 719.5,1079.5 359.5,1079.5 -0.5,1079.5C -0.5,719.5 -0.5,359.5 -0.5,-0.5 Z"/></g>
<g><path style="opacity:1" fill="#ababab" d="M 552.5,368.5 C 558.503,368.333 564.17,369.333 569.5,371.5C 568.833,371.5 568.167,371.5 567.5,371.5C 564.57,370.701 561.57,370.368 558.5,370.5C 556.5,369.833 554.5,369.167 552.5,368.5 Z"/></g>
<g><path style="opacity:1" fill="#050405" d="M 425.5,369.5 C 425.5,435.5 425.5,501.5 425.5,567.5C 467.337,567.832 509.003,567.499 550.5,566.5C 551.568,565.566 552.901,565.232 554.5,565.5C 556.653,564.427 558.653,564.427 560.5,565.5C 559.559,567.05 558.893,568.716 558.5,570.5C 557.094,570.973 556.427,571.973 556.5,573.5C 554.833,574.5 553.5,575.833 552.5,577.5C 549.429,580.246 546.429,582.913 543.5,585.5C 541.938,585.733 540.605,586.4 539.5,587.5C 537.326,587.75 535.659,588.75 534.5,590.5C 532.973,590.427 531.973,591.094 531.5,592.5C 527.899,593.463 524.233,594.13 520.5,594.5C 479.833,594.5 439.167,594.5 398.5,594.5C 398.5,519.5 398.5,444.5 398.5,369.5C 407.5,369.5 416.5,369.5 425.5,369.5 Z"/></g>
<g><path style="opacity:1" fill="#070506" d="M 558.5,370.5 C 561.57,370.368 564.57,370.701 567.5,371.5C 569.905,372.768 572.572,373.435 575.5,373.5C 577.435,374.15 579.435,374.483 581.5,374.5C 583.509,376.065 585.843,377.065 588.5,377.5C 590.214,378.738 592.214,379.405 594.5,379.5C 595.183,381.176 596.517,381.843 598.5,381.5C 599.391,382.11 600.391,382.443 601.5,382.5C 603.566,384.199 605.9,385.532 608.5,386.5C 609.671,387.345 611.005,388.011 612.5,388.5C 612.973,389.906 613.973,390.573 615.5,390.5C 615.973,391.906 616.973,392.573 618.5,392.5C 618.973,393.906 619.973,394.573 621.5,394.5C 625.491,397.497 629.491,400.497 633.5,403.5C 634.339,405.384 635.672,406.717 637.5,407.5C 638.833,409.5 640.5,411.167 642.5,412.5C 644.482,416.146 647.149,419.146 650.5,421.5C 650.833,422.167 651.167,422.833 651.5,423.5C 651.427,425.027 652.094,426.027 653.5,426.5C 654.167,426.5 654.5,426.833 654.5,427.5C 654.427,429.027 655.094,430.027 656.5,430.5C 656.427,432.027 657.094,433.027 658.5,433.5C 660.412,435.657 662.079,437.991 663.5,440.5C 663.343,441.873 663.51,443.207 664,444.5C 664.902,446.431 666.069,448.097 667.5,449.5C 667.66,451.153 668.326,452.486 669.5,453.5C 670.338,453.842 670.672,454.508 670.5,455.5C 670.427,457.027 671.094,458.027 672.5,458.5C 672.629,460.216 672.962,461.883 673.5,463.5C 673.229,465.38 673.896,466.713 675.5,467.5C 675.674,469.861 676.007,472.194 676.5,474.5C 676.12,476.698 676.787,478.365 678.5,479.5C 678.5,479.833 678.5,480.167 678.5,480.5C 679.051,483.807 679.384,487.14 679.5,490.5C 680.238,501.15 680.572,511.817 680.5,522.5C 679.6,527.332 678.934,532.332 678.5,537.5C 678.5,538.833 678.5,540.167 678.5,541.5C 676.757,544.495 675.757,547.829 675.5,551.5C 673.787,552.635 673.12,554.302 673.5,556.5C 671.824,557.183 671.157,558.517 671.5,560.5C 669.319,560.284 667.653,561.117 666.5,563C 668.155,564.444 668.822,566.278 668.5,568.5C 667.699,570.042 667.366,571.708 667.5,573.5C 665.592,574.486 664.592,576.152 664.5,578.5C 663.449,579.222 662.782,580.222 662.5,581.5C 660.952,581.821 660.285,582.821 660.5,584.5C 659.662,584.842 659.328,585.508 659.5,586.5C 657.147,588.86 655.147,591.527 653.5,594.5C 652.094,594.973 651.427,595.973 651.5,597.5C 651.5,598.167 651.167,598.5 650.5,598.5C 647.791,601.208 645.458,604.208 643.5,607.5C 641.5,607.5 640.5,608.5 640.5,610.5C 637.233,612.427 634.233,614.761 631.5,617.5C 630.494,617.062 630.494,616.396 631.5,615.5C 631.557,614.391 631.89,613.391 632.5,612.5C 633.906,612.027 634.573,611.027 634.5,609.5C 634.557,608.391 634.89,607.391 635.5,606.5C 636.906,606.027 637.573,605.027 637.5,603.5C 638.906,603.027 639.573,602.027 639.5,600.5C 640.5,597.833 641.5,595.167 642.5,592.5C 645.571,590.019 647.237,586.686 647.5,582.5C 647.517,580.435 647.85,578.435 648.5,576.5C 648.5,575.833 648.5,575.167 648.5,574.5C 649.117,574.389 649.617,574.056 650,573.5C 651.785,568.314 652.618,562.98 652.5,557.5C 653.663,536.671 653.829,515.671 653,494.5C 652.768,493.263 652.268,492.263 651.5,491.5C 651.5,491.167 651.5,490.833 651.5,490.5C 651.326,488.139 650.993,485.806 650.5,483.5C 650.251,480.998 649.917,478.498 649.5,476C 649.392,474.319 648.725,473.152 647.5,472.5C 646.326,471.486 645.66,470.153 645.5,468.5C 644.633,464.671 642.967,461.337 640.5,458.5C 640.204,456.597 639.537,454.93 638.5,453.5C 637.833,452.833 637.167,452.167 636.5,451.5C 636.573,449.973 635.906,448.973 634.5,448.5C 634.573,446.973 633.906,445.973 632.5,445.5C 632.167,444.833 631.833,444.167 631.5,443.5C 630.581,440.911 628.914,438.911 626.5,437.5C 626.573,435.973 625.906,434.973 624.5,434.5C 622.045,431.923 619.378,429.589 616.5,427.5C 616.144,425.81 615.144,424.81 613.5,424.5C 612.5,422.833 611.167,421.5 609.5,420.5C 608.206,418.704 607.206,416.704 606.5,414.5C 605.833,414.833 605.167,415.167 604.5,415.5C 603.41,414.273 602.076,413.44 600.5,413C 604.226,411.957 603.893,411.457 599.5,411.5C 599.883,408.538 598.883,407.538 596.5,408.5C 597.025,409.192 597.692,409.692 598.5,410C 596.455,410.49 594.455,410.323 592.5,409.5C 592.167,409.5 591.833,409.5 591.5,409.5C 591.027,408.094 590.027,407.427 588.5,407.5C 584.67,405.702 580.67,404.369 576.5,403.5C 573.811,401.883 570.811,400.883 567.5,400.5C 567.167,400.5 566.833,400.5 566.5,400.5C 566.5,399.833 566.167,399.5 565.5,399.5C 565.082,398.778 564.416,398.278 563.5,398C 559.848,397.501 556.182,397.335 552.5,397.5C 529.339,396.502 506.006,396.169 482.5,396.5C 482.5,443.833 482.5,491.167 482.5,538.5C 473.5,538.5 464.5,538.5 455.5,538.5C 455.5,482.167 455.5,425.833 455.5,369.5C 489.846,369.231 524.18,369.564 558.5,370.5 Z"/></g>
<g><path style="opacity:1" fill="#616161" d="M 567.5,371.5 C 568.167,371.5 568.833,371.5 569.5,371.5C 571.5,371.833 573.5,372.167 575.5,372.5C 575.5,372.833 575.5,373.167 575.5,373.5C 572.572,373.435 569.905,372.768 567.5,371.5 Z"/></g>
<g><path style="opacity:1" fill="#adadad" d="M 575.5,373.5 C 575.5,373.167 575.5,372.833 575.5,372.5C 577.898,372.259 579.898,372.926 581.5,374.5C 579.435,374.483 577.435,374.15 575.5,373.5 Z"/></g>
<g><path style="opacity:1" fill="#979797" d="M 581.5,374.5 C 584.491,374.166 586.824,375.166 588.5,377.5C 585.843,377.065 583.509,376.065 581.5,374.5 Z"/></g>
<g><path style="opacity:1" fill="#484848" d="M 425.5,368.5 C 425.5,368.833 425.5,369.167 425.5,369.5C 416.5,369.5 407.5,369.5 398.5,369.5C 398.5,444.5 398.5,519.5 398.5,594.5C 439.167,594.5 479.833,594.5 520.5,594.5C 479.67,595.499 438.67,595.832 397.5,595.5C 397.5,519.833 397.5,444.167 397.5,368.5C 406.833,368.5 416.167,368.5 425.5,368.5 Z"/></g>
<g><path style="opacity:1" fill="#373737" d="M 454.5,368.5 C 487.167,368.5 519.833,368.5 552.5,368.5C 554.5,369.167 556.5,369.833 558.5,370.5C 524.18,369.564 489.846,369.231 455.5,369.5C 455.5,425.833 455.5,482.167 455.5,538.5C 454.501,482.002 454.168,425.336 454.5,368.5 Z"/></g>
<g><path style="opacity:1" fill="#acabac" d="M 588.5,377.5 C 590.527,377.338 592.527,377.505 594.5,378C 595.056,378.383 595.389,378.883 595.5,379.5C 595.167,379.5 594.833,379.5 594.5,379.5C 592.214,379.405 590.214,378.738 588.5,377.5 Z"/></g>
<g><path style="opacity:1" fill="#525151" d="M 594.5,379.5 C 594.833,379.5 595.167,379.5 595.5,379.5C 596.71,379.932 597.71,380.599 598.5,381.5C 596.517,381.843 595.183,381.176 594.5,379.5 Z"/></g>
<g><path style="opacity:1" fill="#959494" d="M 601.5,382.5 C 604.546,382.725 606.879,384.058 608.5,386.5C 605.9,385.532 603.566,384.199 601.5,382.5 Z"/></g>
<g><path style="opacity:1" fill="#8a8a8a" d="M 612.5,388.5 C 613.167,388.5 613.833,388.5 614.5,388.5C 614.833,389.167 615.167,389.833 615.5,390.5C 613.973,390.573 612.973,389.906 612.5,388.5 Z"/></g>
<g><path style="opacity:1" fill="#d5d5d5" d="M 614.5,388.5 C 616.821,388.658 618.654,389.658 620,391.5C 620.333,391.167 620.667,390.833 621,390.5C 625.017,395.08 629.184,399.414 633.5,403.5C 629.491,400.497 625.491,397.497 621.5,394.5C 621.027,393.094 620.027,392.427 618.5,392.5C 618.027,391.094 617.027,390.427 615.5,390.5C 615.167,389.833 614.833,389.167 614.5,388.5 Z"/></g>
<g><path style="opacity:1" fill="#848283" d="M 615.5,390.5 C 617.027,390.427 618.027,391.094 618.5,392.5C 616.973,392.573 615.973,391.906 615.5,390.5 Z"/></g>
<g><path style="opacity:1" fill="#868586" d="M 618.5,392.5 C 620.027,392.427 621.027,393.094 621.5,394.5C 619.973,394.573 618.973,393.906 618.5,392.5 Z"/></g>
<g><path style="opacity:1" fill="#929192" d="M 552.5,397.5 C 529.5,397.5 506.5,397.5 483.5,397.5C 483.832,444.67 483.499,491.67 482.5,538.5C 482.5,491.167 482.5,443.833 482.5,396.5C 506.006,396.169 529.339,396.502 552.5,397.5 Z"/></g>
<g><path style="opacity:1" fill="#e2e2e2" d="M 454.5,368.5 C 454.168,425.336 454.501,482.002 455.5,538.5C 464.5,538.5 473.5,538.5 482.5,538.5C 483.499,491.67 483.832,444.67 483.5,397.5C 506.5,397.5 529.5,397.5 552.5,397.5C 552.5,397.833 552.5,398.167 552.5,398.5C 529.833,398.5 507.167,398.5 484.5,398.5C 484.667,445.501 484.5,492.501 484,539.5C 473.91,540.652 463.744,540.819 453.5,540C 452.835,511.404 452.502,482.738 452.5,454C 452.5,425.159 453.167,396.659 454.5,368.5 Z"/></g>
<g><path style="opacity:1" fill="#cdcdcd" d="M 554.5,398.5 C 558.198,398.552 561.865,398.886 565.5,399.5C 566.167,399.5 566.5,399.833 566.5,400.5C 562.21,400.802 558.21,400.136 554.5,398.5 Z"/></g>
<g><path style="opacity:1" fill="#4f4f4f" d="M 552.5,398.5 C 552.5,398.167 552.5,397.833 552.5,397.5C 556.182,397.335 559.848,397.501 563.5,398C 564.416,398.278 565.082,398.778 565.5,399.5C 561.865,398.886 558.198,398.552 554.5,398.5C 553.833,398.5 553.167,398.5 552.5,398.5 Z"/></g>
<g><path style="opacity:1" fill="#b8b7b7" d="M 567.5,400.5 C 570.811,400.883 573.811,401.883 576.5,403.5C 573.008,403.554 570.008,402.554 567.5,400.5 Z"/></g>
<g><path style="opacity:1" fill="#201f20" d="M 609.5,420.5 C 603.962,416.569 598.296,412.902 592.5,409.5C 594.455,410.323 596.455,410.49 598.5,410C 597.692,409.692 597.025,409.192 596.5,408.5C 598.883,407.538 599.883,408.538 599.5,411.5C 603.893,411.457 604.226,411.957 600.5,413C 602.076,413.44 603.41,414.273 604.5,415.5C 605.167,415.167 605.833,414.833 606.5,414.5C 607.206,416.704 608.206,418.704 609.5,420.5 Z"/></g>
<g><path style="opacity:1" fill="#6c6c6c" d="M 588.5,407.5 C 590.027,407.427 591.027,408.094 591.5,409.5C 589.973,409.573 588.973,408.906 588.5,407.5 Z"/></g>
<g><path style="opacity:1" fill="#bebebe" d="M 637.5,407.5 C 640.5,407.833 642.167,409.5 642.5,412.5C 640.5,411.167 638.833,409.5 637.5,407.5 Z"/></g>
<g><path style="opacity:1" fill="#c1c0c0" d="M 642.5,412.5 C 644.09,412.628 645.423,413.295 646.5,414.5C 648.289,416.61 649.622,418.944 650.5,421.5C 647.149,419.146 644.482,416.146 642.5,412.5 Z"/></g>
<g><path style="opacity:1" fill="#b9b9b9" d="M 609.5,420.5 C 611.167,421.5 612.5,422.833 613.5,424.5C 610.858,424.512 609.525,423.179 609.5,420.5 Z"/></g>
<g><path style="opacity:1" fill="#535353" d="M 651.5,423.5 C 652.906,423.973 653.573,424.973 653.5,426.5C 652.094,426.027 651.427,425.027 651.5,423.5 Z"/></g>
<g><path style="opacity:1" fill="#1e1d1e" d="M 545.5,425.5 C 545.5,425.833 545.5,426.167 545.5,426.5C 534.5,426.5 523.5,426.5 512.5,426.5C 512.5,435.167 512.5,443.833 512.5,452.5C 523.679,452.172 534.679,452.505 545.5,453.5C 534.167,453.5 522.833,453.5 511.5,453.5C 511.5,444.167 511.5,434.833 511.5,425.5C 522.833,425.5 534.167,425.5 545.5,425.5 Z"/></g>
<g><path style="opacity:1" fill="#444444" d="M 545.5,426.5 C 545.5,426.167 545.5,425.833 545.5,425.5C 550.076,425.438 554.409,426.105 558.5,427.5C 554.069,427.769 549.735,427.436 545.5,426.5 Z"/></g>
<g><path style="opacity:1" fill="#aaaaaa" d="M 613.5,424.5 C 615.144,424.81 616.144,425.81 616.5,427.5C 614.856,427.19 613.856,426.19 613.5,424.5 Z"/></g>
<g><path style="opacity:1" fill="#060506" d="M 545.5,426.5 C 549.735,427.436 554.069,427.769 558.5,427.5C 561.003,428.371 563.67,429.037 566.5,429.5C 566.833,429.5 567.167,429.5 567.5,429.5C 568.635,431.213 570.302,431.88 572.5,431.5C 573.183,433.176 574.517,433.843 576.5,433.5C 576.842,434.338 577.508,434.672 578.5,434.5C 580.566,436.199 582.9,437.532 585.5,438.5C 587.878,440.878 590.545,442.878 593.5,444.5C 594.262,446.262 595.596,447.262 597.5,447.5C 601.18,451.183 604.514,455.183 607.5,459.5C 607.427,461.027 608.094,462.027 609.5,462.5C 610.167,462.5 610.5,462.833 610.5,463.5C 610.5,464.833 611.167,465.5 612.5,465.5C 612.66,467.153 613.326,468.486 614.5,469.5C 614.62,472.578 615.62,475.245 617.5,477.5C 618.143,479.076 619.143,480.41 620.5,481.5C 620.5,482.167 620.5,482.833 620.5,483.5C 621.038,485.117 621.371,486.784 621.5,488.5C 621.674,490.861 622.007,493.194 622.5,495.5C 623.366,513.485 623.7,531.485 623.5,549.5C 623.495,553.534 623.162,557.534 622.5,561.5C 621.659,563.379 621.325,565.379 621.5,567.5C 619.345,569.617 618.345,572.284 618.5,575.5C 618.5,575.833 618.5,576.167 618.5,576.5C 616.935,578.509 615.935,580.843 615.5,583.5C 615.5,583.833 615.5,584.167 615.5,584.5C 613.755,586.033 612.755,588.033 612.5,590.5C 611.094,590.973 610.427,591.973 610.5,593.5C 608.801,595.566 607.468,597.9 606.5,600.5C 605.094,600.973 604.427,601.973 604.5,603.5C 602.147,605.86 600.147,608.527 598.5,611.5C 596.433,613.227 594.767,615.227 593.5,617.5C 591.973,617.427 590.973,618.094 590.5,619.5C 590.5,619.833 590.5,620.167 590.5,620.5C 586.537,623.129 582.871,626.129 579.5,629.5C 578.71,630.401 577.71,631.068 576.5,631.5C 574.251,632.08 572.585,633.413 571.5,635.5C 570.833,635.833 570.167,636.167 569.5,636.5C 565.691,637.332 562.357,638.999 559.5,641.5C 556.833,642.5 554.167,643.5 551.5,644.5C 549.199,645.06 546.866,645.56 544.5,646C 543.944,646.383 543.611,646.883 543.5,647.5C 541.447,647.402 539.78,648.069 538.5,649.5C 538.167,649.5 537.833,649.5 537.5,649.5C 532.662,649.911 527.995,650.578 523.5,651.5C 481.833,651.5 440.167,651.5 398.5,651.5C 398.5,642.5 398.5,633.5 398.5,624.5C 439.167,624.5 479.833,624.5 520.5,624.5C 524.163,624.048 527.83,623.548 531.5,623C 532.416,622.722 533.082,622.222 533.5,621.5C 533.5,621.167 533.5,620.833 533.5,620.5C 534.167,620.5 534.833,620.5 535.5,620.5C 538.746,619.946 541.746,618.946 544.5,617.5C 546.941,615.728 549.608,614.394 552.5,613.5C 555.676,612.66 558.342,610.993 560.5,608.5C 562.027,608.573 563.027,607.906 563.5,606.5C 565.754,605.876 567.421,604.543 568.5,602.5C 568.5,601.833 568.833,601.5 569.5,601.5C 570.833,600.833 571.833,599.833 572.5,598.5C 573.906,598.027 574.573,597.027 574.5,595.5C 576.5,595.5 577.5,594.5 577.5,592.5C 578.906,592.027 579.573,591.027 579.5,589.5C 581.144,589.19 582.144,588.19 582.5,586.5C 582.796,584.597 583.463,582.93 584.5,581.5C 586.738,580.147 588.071,578.147 588.5,575.5C 588.5,574.833 588.5,574.167 588.5,573.5C 589.906,573.027 590.573,572.027 590.5,570.5C 592.693,568.478 593.693,565.811 593.5,562.5C 595.223,560.22 595.889,557.553 595.5,554.5C 596.268,553.737 596.768,552.737 597,551.5C 597.833,533.158 597.666,514.824 596.5,496.5C 595.85,494.816 594.85,493.483 593.5,492.5C 593.111,488.153 591.444,484.486 588.5,481.5C 584.788,475.28 580.121,469.78 574.5,465C 573.255,464.209 571.922,463.709 570.5,463.5C 569.198,461.178 567.198,459.845 564.5,459.5C 563.609,458.89 562.609,458.557 561.5,458.5C 559.605,456.759 557.272,455.759 554.5,455.5C 551.781,454.087 548.781,453.42 545.5,453.5C 534.679,452.505 523.679,452.172 512.5,452.5C 512.5,443.833 512.5,435.167 512.5,426.5C 523.5,426.5 534.5,426.5 545.5,426.5 Z"/></g>
<g><path style="opacity:1" fill="#b6b5b5" d="M 558.5,427.5 C 561.698,426.964 564.365,427.631 566.5,429.5C 563.67,429.037 561.003,428.371 558.5,427.5 Z"/></g>
<g><path style="opacity:1" fill="#5a5859" d="M 654.5,427.5 C 655.5,427.833 656.167,428.5 656.5,429.5C 656.5,429.833 656.5,430.167 656.5,430.5C 655.094,430.027 654.427,429.027 654.5,427.5 Z"/></g>
<g><path style="opacity:1" fill="#e0dfe0" d="M 656.5,430.5 C 656.5,430.167 656.5,429.833 656.5,429.5C 657.847,430.171 659.014,430.171 660,429.5C 660.5,430 661,430.5 661.5,431C 660.151,432.635 660.318,434.135 662,435.5C 662.743,433.355 663.576,433.189 664.5,435C 663.767,436.766 663.433,438.599 663.5,440.5C 662.079,437.991 660.412,435.657 658.5,433.5C 658.573,431.973 657.906,430.973 656.5,430.5 Z"/></g>
<g><path style="opacity:1" fill="#abaaaa" d="M 567.5,429.5 C 569.698,429.12 571.365,429.787 572.5,431.5C 570.302,431.88 568.635,431.213 567.5,429.5 Z"/></g>
<g><path style="opacity:1" fill="#6f6f6f" d="M 572.5,431.5 C 574.153,431.66 575.486,432.326 576.5,433.5C 574.517,433.843 573.183,433.176 572.5,431.5 Z"/></g>
<g><path style="opacity:1" fill="#5c5a5b" d="M 656.5,430.5 C 657.906,430.973 658.573,431.973 658.5,433.5C 657.094,433.027 656.427,432.027 656.5,430.5 Z"/></g>
<g><path style="opacity:1" fill="#a3a3a3" d="M 578.5,434.5 C 581.546,434.725 583.879,436.058 585.5,438.5C 582.9,437.532 580.566,436.199 578.5,434.5 Z"/></g>
<g><path style="opacity:1" fill="#757575" d="M 624.5,434.5 C 625.906,434.973 626.573,435.973 626.5,437.5C 625.094,437.027 624.427,436.027 624.5,434.5 Z"/></g>
<g><path style="opacity:1" fill="#bcbbbc" d="M 585.5,438.5 C 586.978,438.238 588.311,438.571 589.5,439.5C 591.404,440.766 592.737,442.433 593.5,444.5C 590.545,442.878 587.878,440.878 585.5,438.5 Z"/></g>
<g><path style="opacity:1" fill="#7c7c7c" d="M 626.5,437.5 C 628.914,438.911 630.581,440.911 631.5,443.5C 629.086,442.089 627.419,440.089 626.5,437.5 Z"/></g>
<g><path style="opacity:1" fill="#555354" d="M 663.5,440.5 C 665.584,443.053 666.917,446.053 667.5,449.5C 666.069,448.097 664.902,446.431 664,444.5C 663.51,443.207 663.343,441.873 663.5,440.5 Z"/></g>
<g><path style="opacity:1" fill="#999798" d="M 593.5,444.5 C 595.404,444.738 596.738,445.738 597.5,447.5C 595.596,447.262 594.262,446.262 593.5,444.5 Z"/></g>
<g><path style="opacity:1" fill="#9d9d9d" d="M 632.5,445.5 C 633.906,445.973 634.573,446.973 634.5,448.5C 633.094,448.027 632.427,447.027 632.5,445.5 Z"/></g>
<g><path style="opacity:1" fill="#969495" d="M 634.5,448.5 C 635.906,448.973 636.573,449.973 636.5,451.5C 635.094,451.027 634.427,450.027 634.5,448.5 Z"/></g>
<g><path style="opacity:1" fill="#858585" d="M 667.5,449.5 C 669.176,450.183 669.843,451.517 669.5,453.5C 668.326,452.486 667.66,451.153 667.5,449.5 Z"/></g>
<g><path style="opacity:1" fill="#a3a2a3" d="M 511.5,453.5 C 522.833,453.5 534.167,453.5 545.5,453.5C 548.781,453.42 551.781,454.087 554.5,455.5C 540.004,455.008 525.67,454.341 511.5,453.5 Z"/></g>
<g><path style="opacity:1" fill="#949393" d="M 638.5,453.5 C 639.537,454.93 640.204,456.597 640.5,458.5C 638.787,457.365 638.12,455.698 638.5,453.5 Z"/></g>
<g><path style="opacity:1" fill="#949494" d="M 554.5,455.5 C 557.272,455.759 559.605,456.759 561.5,458.5C 558.728,458.241 556.395,457.241 554.5,455.5 Z"/></g>
<g><path style="opacity:1" fill="#a3a1a2" d="M 670.5,455.5 C 671.906,455.973 672.573,456.973 672.5,458.5C 671.094,458.027 670.427,457.027 670.5,455.5 Z"/></g>
<g><path style="opacity:1" fill="#b7b7b7" d="M 564.5,459.5 C 567.198,459.845 569.198,461.178 570.5,463.5C 567.634,463.367 565.634,462.034 564.5,459.5 Z"/></g>
<g><path style="opacity:1" fill="#575657" d="M 607.5,459.5 C 608.906,459.973 609.573,460.973 609.5,462.5C 608.094,462.027 607.427,461.027 607.5,459.5 Z"/></g>
<g><path style="opacity:1" fill="#8c8c8c" d="M 640.5,458.5 C 642.967,461.337 644.633,464.671 645.5,468.5C 645.167,468.5 644.833,468.5 644.5,468.5C 642.726,465.376 641.393,462.042 640.5,458.5 Z"/></g>
<g><path style="opacity:1" fill="#8e8e8e" d="M 610.5,463.5 C 611.833,463.5 612.5,464.167 612.5,465.5C 612.5,464.167 611.833,463.5 610.5,463.5 Z"/></g>
<g><path style="opacity:1" fill="#868686" d="M 673.5,463.5 C 674.674,464.514 675.34,465.847 675.5,467.5C 673.896,466.713 673.229,465.38 673.5,463.5 Z"/></g>
<g><path style="opacity:1" fill="#504e4f" d="M 614.5,469.5 C 615.492,471.456 616.492,473.456 617.5,475.5C 617.5,476.167 617.5,476.833 617.5,477.5C 615.62,475.245 614.62,472.578 614.5,469.5 Z"/></g>
<g><path style="opacity:1" fill="#313030" d="M 647.5,472.5 C 648.725,473.152 649.392,474.319 649.5,476C 649.917,478.498 650.251,480.998 650.5,483.5C 650.167,483.5 649.833,483.5 649.5,483.5C 649.5,483.167 649.5,482.833 649.5,482.5C 648.706,479.198 648.04,475.865 647.5,472.5 Z"/></g>
<g><path style="opacity:1" fill="#dedddd" d="M 644.5,468.5 C 644.833,468.5 645.167,468.5 645.5,468.5C 645.66,470.153 646.326,471.486 647.5,472.5C 648.04,475.865 648.706,479.198 649.5,482.5C 648.069,481.097 646.902,479.431 646,477.5C 645.282,478.451 644.449,478.617 643.5,478C 644.804,477.196 645.471,476.029 645.5,474.5C 644.844,472.547 644.511,470.547 644.5,468.5 Z"/></g>
<g><path style="opacity:1" fill="#aaa8a9" d="M 617.5,475.5 C 619.539,476.911 620.539,478.911 620.5,481.5C 619.143,480.41 618.143,479.076 617.5,477.5C 617.5,476.833 617.5,476.167 617.5,475.5 Z"/></g>
<g><path style="opacity:1" fill="#6d6d6d" d="M 676.5,474.5 C 678.213,475.635 678.88,477.302 678.5,479.5C 676.787,478.365 676.12,476.698 676.5,474.5 Z"/></g>
<g><path style="opacity:1" fill="#b6b5b6" d="M 620.5,483.5 C 622.655,485.617 623.655,488.284 623.5,491.5C 622.833,490.5 622.167,489.5 621.5,488.5C 621.371,486.784 621.038,485.117 620.5,483.5 Z"/></g>
<g><path style="opacity:1" fill="#9a9899" d="M 678.5,480.5 C 679.222,480.918 679.722,481.584 680,482.5C 680.497,485.146 680.664,487.813 680.5,490.5C 680.167,490.5 679.833,490.5 679.5,490.5C 679.384,487.14 679.051,483.807 678.5,480.5 Z"/></g>
<g><path style="opacity:1" fill="#aaaaaa" d="M 649.5,483.5 C 649.833,483.5 650.167,483.5 650.5,483.5C 650.993,485.806 651.326,488.139 651.5,490.5C 650.833,489.5 650.167,488.5 649.5,487.5C 649.5,486.167 649.5,484.833 649.5,483.5 Z"/></g>
<g><path style="opacity:1" fill="#898989" d="M 588.5,481.5 C 591.444,484.486 593.111,488.153 593.5,492.5C 591.435,489.075 589.769,485.408 588.5,481.5 Z"/></g>
<g><path style="opacity:1" fill="#565656" d="M 621.5,488.5 C 622.167,489.5 622.833,490.5 623.5,491.5C 623.5,492.833 623.5,494.167 623.5,495.5C 623.167,495.5 622.833,495.5 622.5,495.5C 622.007,493.194 621.674,490.861 621.5,488.5 Z"/></g>
<g><path style="opacity:1" fill="#7c7c7c" d="M 651.5,491.5 C 652.268,492.263 652.768,493.263 653,494.5C 653.829,515.671 653.663,536.671 652.5,557.5C 652.79,535.474 652.457,513.474 651.5,491.5 Z"/></g>
<g><path style="opacity:1" fill="#bebebe" d="M 680.5,491.5 C 681.222,491.918 681.722,492.584 682,493.5C 682.825,503.342 682.658,513.009 681.5,522.5C 681.76,512.128 681.427,501.794 680.5,491.5 Z"/></g>
<g><path style="opacity:1" fill="#e4e4e4" d="M 649.5,487.5 C 650.167,488.5 650.833,489.5 651.5,490.5C 651.5,490.833 651.5,491.167 651.5,491.5C 652.457,513.474 652.79,535.474 652.5,557.5C 651.865,560.931 650.865,564.264 649.5,567.5C 652.154,540.834 652.154,514.167 649.5,487.5 Z"/></g>
<g><path style="opacity:1" fill="#3c3c3c" d="M 679.5,490.5 C 679.833,490.5 680.167,490.5 680.5,490.5C 680.5,490.833 680.5,491.167 680.5,491.5C 681.427,501.794 681.76,512.128 681.5,522.5C 681.167,522.5 680.833,522.5 680.5,522.5C 680.572,511.817 680.238,501.15 679.5,490.5 Z"/></g>
<g><path style="opacity:1" fill="#2f2e2e" d="M 593.5,492.5 C 594.85,493.483 595.85,494.816 596.5,496.5C 597.666,514.824 597.833,533.158 597,551.5C 596.768,552.737 596.268,553.737 595.5,554.5C 596.614,536.191 596.78,517.858 596,499.5C 595.722,498.584 595.222,497.918 594.5,497.5C 594.371,495.784 594.038,494.117 593.5,492.5 Z"/></g>
<g><path style="opacity:1" fill="#b0b0b0" d="M 594.5,497.5 C 595.222,497.918 595.722,498.584 596,499.5C 596.78,517.858 596.614,536.191 595.5,554.5C 595.167,554.5 594.833,554.5 594.5,554.5C 595.79,535.491 595.79,516.491 594.5,497.5 Z"/></g>
<g><path style="opacity:1" fill="#191919" d="M 622.5,495.5 C 622.833,495.5 623.167,495.5 623.5,495.5C 624.786,513.647 624.786,531.647 623.5,549.5C 623.7,531.485 623.366,513.485 622.5,495.5 Z"/></g>
<g><path style="opacity:1" fill="#9d9d9d" d="M 623.5,495.5 C 624.222,495.918 624.722,496.584 625,497.5C 625.667,516.5 625.667,535.5 625,554.5C 624.61,557.104 623.776,559.438 622.5,561.5C 623.162,557.534 623.495,553.534 623.5,549.5C 624.786,531.647 624.786,513.647 623.5,495.5 Z"/></g>
<g><path style="opacity:1" fill="#6b6b6b" d="M 680.5,522.5 C 680.833,522.5 681.167,522.5 681.5,522.5C 680.965,526.819 680.465,531.152 680,535.5C 679.722,536.416 679.222,537.082 678.5,537.5C 678.934,532.332 679.6,527.332 680.5,522.5 Z"/></g>
<g><path style="opacity:1" fill="#a5a5a5" d="M 678.5,541.5 C 678.11,544.839 677.61,548.173 677,551.5C 676.617,552.056 676.117,552.389 675.5,552.5C 675.5,552.167 675.5,551.833 675.5,551.5C 675.757,547.829 676.757,544.495 678.5,541.5 Z"/></g>
<g><path style="opacity:1" fill="#515151" d="M 675.5,551.5 C 675.5,551.833 675.5,552.167 675.5,552.5C 675.34,554.153 674.674,555.486 673.5,556.5C 673.12,554.302 673.787,552.635 675.5,551.5 Z"/></g>
<g><path style="opacity:1" fill="#3c3c3c" d="M 594.5,554.5 C 594.833,554.5 595.167,554.5 595.5,554.5C 595.889,557.553 595.223,560.22 593.5,562.5C 593.833,559.833 594.167,557.167 594.5,554.5 Z"/></g>
<g><path style="opacity:1" fill="#222122" d="M 673.5,556.5 C 673.371,558.216 673.038,559.883 672.5,561.5C 670.759,563.395 669.759,565.728 669.5,568.5C 669.167,568.5 668.833,568.5 668.5,568.5C 668.822,566.278 668.155,564.444 666.5,563C 667.653,561.117 669.319,560.284 671.5,560.5C 671.157,558.517 671.824,557.183 673.5,556.5 Z"/></g>
<g><path style="opacity:1" fill="#595959" d="M 555.5,563.5 C 556.5,563.5 557.5,563.5 558.5,563.5C 559.675,563.281 560.675,563.614 561.5,564.5C 561.376,565.107 561.043,565.44 560.5,565.5C 558.653,564.427 556.653,564.427 554.5,565.5C 554.833,564.833 555.167,564.167 555.5,563.5 Z"/></g>
<g><path style="opacity:1" fill="#ededed" d="M 426.5,368.5 C 427.499,433.998 427.832,499.665 427.5,565.5C 466.168,565.667 504.835,565.5 543.5,565C 547.548,564.696 551.548,564.196 555.5,563.5C 555.167,564.167 554.833,564.833 554.5,565.5C 552.901,565.232 551.568,565.566 550.5,566.5C 509.167,566.5 467.833,566.5 426.5,566.5C 426.5,500.5 426.5,434.5 426.5,368.5 Z"/></g>
<g><path style="opacity:1" fill="#bab9b9" d="M 672.5,561.5 C 672.821,564.577 671.821,566.91 669.5,568.5C 669.759,565.728 670.759,563.395 672.5,561.5 Z"/></g>
<g><path style="opacity:1" fill="#8c8b8c" d="M 425.5,368.5 C 425.833,368.5 426.167,368.5 426.5,368.5C 426.5,434.5 426.5,500.5 426.5,566.5C 467.833,566.5 509.167,566.5 550.5,566.5C 509.003,567.499 467.337,567.832 425.5,567.5C 425.5,501.5 425.5,435.5 425.5,369.5C 425.5,369.167 425.5,368.833 425.5,368.5 Z"/></g>
<g><path style="opacity:1" fill="#aaaaaa" d="M 558.5,563.5 C 559.568,562.566 560.901,562.232 562.5,562.5C 562.706,565.997 561.372,568.663 558.5,570.5C 558.893,568.716 559.559,567.05 560.5,565.5C 561.043,565.44 561.376,565.107 561.5,564.5C 560.675,563.614 559.675,563.281 558.5,563.5 Z"/></g>
<g><path style="opacity:1" fill="#474747" d="M 593.5,562.5 C 593.693,565.811 592.693,568.478 590.5,570.5C 590.557,569.391 590.89,568.391 591.5,567.5C 591.402,565.447 592.069,563.78 593.5,562.5 Z"/></g>
<g><path style="opacity:1" fill="#686868" d="M 621.5,567.5 C 620.871,570.397 619.871,573.064 618.5,575.5C 618.345,572.284 619.345,569.617 621.5,567.5 Z"/></g>
<g><path style="opacity:1" fill="#989697" d="M 558.5,570.5 C 558.573,572.027 557.906,573.027 556.5,573.5C 556.427,571.973 557.094,570.973 558.5,570.5 Z"/></g>
<g><path style="opacity:1" fill="#9d9d9d" d="M 591.5,567.5 C 590.89,568.391 590.557,569.391 590.5,570.5C 590.573,572.027 589.906,573.027 588.5,573.5C 588.621,570.895 589.621,568.895 591.5,567.5 Z"/></g>
<g><path style="opacity:1" fill="#b9b9b9" d="M 668.5,568.5 C 668.833,568.5 669.167,568.5 669.5,568.5C 669.88,570.698 669.213,572.365 667.5,573.5C 667.366,571.708 667.699,570.042 668.5,568.5 Z"/></g>
<g><path style="opacity:1" fill="#555555" d="M 652.5,557.5 C 652.618,562.98 651.785,568.314 650,573.5C 649.617,574.056 649.117,574.389 648.5,574.5C 648.674,572.139 649.007,569.806 649.5,567.5C 650.865,564.264 651.865,560.931 652.5,557.5 Z"/></g>
<g><path style="opacity:1" fill="#c0bebf" d="M 556.5,573.5 C 556.475,576.179 555.142,577.512 552.5,577.5C 553.5,575.833 554.833,574.5 556.5,573.5 Z"/></g>
<g><path style="opacity:1" fill="#afadae" d="M 667.5,573.5 C 667.25,575.674 666.25,577.341 664.5,578.5C 664.592,576.152 665.592,574.486 667.5,573.5 Z"/></g>
<g><path style="opacity:1" fill="#b4b3b3" d="M 588.5,575.5 C 588.071,578.147 586.738,580.147 584.5,581.5C 584.354,578.446 585.687,576.446 588.5,575.5 Z"/></g>
<g><path style="opacity:1" fill="#8d8c8d" d="M 552.5,577.5 C 550.788,581.542 547.788,584.208 543.5,585.5C 546.429,582.913 549.429,580.246 552.5,577.5 Z"/></g>
<g><path style="opacity:1" fill="#8d8d8d" d="M 648.5,576.5 C 647.85,578.435 647.517,580.435 647.5,582.5C 646.833,582.833 646.167,583.167 645.5,583.5C 645.643,580.615 646.643,578.282 648.5,576.5 Z"/></g>
<g><path style="opacity:1" fill="#9d9d9d" d="M 618.5,576.5 C 618.834,579.491 617.834,581.824 615.5,583.5C 615.935,580.843 616.935,578.509 618.5,576.5 Z"/></g>
<g><path style="opacity:1" fill="#585858" d="M 662.5,581.5 C 662.068,582.71 661.401,583.71 660.5,584.5C 660.285,582.821 660.952,581.821 662.5,581.5 Z"/></g>
<g><path style="opacity:1" fill="#2d2d2d" d="M 647.5,582.5 C 647.237,586.686 645.571,590.019 642.5,592.5C 642.557,591.391 642.89,590.391 643.5,589.5C 645.081,587.858 645.747,585.858 645.5,583.5C 646.167,583.167 646.833,582.833 647.5,582.5 Z"/></g>
<g><path style="opacity:1" fill="#5b5b5b" d="M 539.5,587.5 C 539.167,588.167 538.833,588.833 538.5,589.5C 537.167,589.833 535.833,590.167 534.5,590.5C 535.659,588.75 537.326,587.75 539.5,587.5 Z"/></g>
<g><path style="opacity:1" fill="#bababa" d="M 543.5,585.5 C 542.415,587.587 540.749,588.92 538.5,589.5C 538.833,588.833 539.167,588.167 539.5,587.5C 540.605,586.4 541.938,585.733 543.5,585.5 Z"/></g>
<g><path style="opacity:1" fill="#535353" d="M 582.5,586.5 C 582.144,588.19 581.144,589.19 579.5,589.5C 579.856,587.81 580.856,586.81 582.5,586.5 Z"/></g>
<g><path style="opacity:1" fill="#9b9b9b" d="M 615.5,584.5 C 615.245,586.967 614.245,588.967 612.5,590.5C 612.755,588.033 613.755,586.033 615.5,584.5 Z"/></g>
<g><path style="opacity:1" fill="#747474" d="M 579.5,589.5 C 579.573,591.027 578.906,592.027 577.5,592.5C 577.427,590.973 578.094,589.973 579.5,589.5 Z"/></g>
<g><path style="opacity:1" fill="#a6a4a5" d="M 534.5,590.5 C 534.027,591.906 533.027,592.573 531.5,592.5C 531.973,591.094 532.973,590.427 534.5,590.5 Z"/></g>
<g><path style="opacity:1" fill="#838282" d="M 659.5,586.5 C 658.59,590.065 656.59,592.732 653.5,594.5C 655.147,591.527 657.147,588.86 659.5,586.5 Z"/></g>
<g><path style="opacity:1" fill="#7e7e7e" d="M 612.5,590.5 C 612.573,592.027 611.906,593.027 610.5,593.5C 610.427,591.973 611.094,590.973 612.5,590.5 Z"/></g>
<g><path style="opacity:1" fill="#5a5a5a" d="M 577.5,592.5 C 577.5,594.5 576.5,595.5 574.5,595.5C 575.167,594.167 576.167,593.167 577.5,592.5 Z"/></g>
<g><path style="opacity:1" fill="#cbcbcb" d="M 643.5,589.5 C 642.89,590.391 642.557,591.391 642.5,592.5C 641.5,595.167 640.5,597.833 639.5,600.5C 639.167,600.5 638.833,600.5 638.5,600.5C 638.876,596.091 640.543,592.424 643.5,589.5 Z"/></g>
<g><path style="opacity:1" fill="#6f6f6f" d="M 653.5,594.5 C 653.573,596.027 652.906,597.027 651.5,597.5C 651.427,595.973 652.094,594.973 653.5,594.5 Z"/></g>
<g><path style="opacity:1" fill="#696969" d="M 574.5,595.5 C 574.573,597.027 573.906,598.027 572.5,598.5C 572.427,596.973 573.094,595.973 574.5,595.5 Z"/></g>
<g><path style="opacity:1" fill="#898888" d="M 610.5,593.5 C 610.275,596.546 608.942,598.879 606.5,600.5C 607.468,597.9 608.801,595.566 610.5,593.5 Z"/></g>
<g><path style="opacity:1" fill="#696969" d="M 572.5,598.5 C 571.833,599.833 570.833,600.833 569.5,601.5C 569.5,599.5 570.5,598.5 572.5,598.5 Z"/></g>
<g><path style="opacity:1" fill="#848283" d="M 606.5,600.5 C 606.573,602.027 605.906,603.027 604.5,603.5C 604.427,601.973 605.094,600.973 606.5,600.5 Z"/></g>
<g><path style="opacity:1" fill="#686868" d="M 638.5,600.5 C 638.833,600.5 639.167,600.5 639.5,600.5C 639.573,602.027 638.906,603.027 637.5,603.5C 637.557,602.391 637.89,601.391 638.5,600.5 Z"/></g>
<g><path style="opacity:1" fill="#575757" d="M 568.5,602.5 C 567.421,604.543 565.754,605.876 563.5,606.5C 564.539,604.469 566.205,603.136 568.5,602.5 Z"/></g>
<g><path style="opacity:1" fill="#949494" d="M 637.5,603.5 C 637.573,605.027 636.906,606.027 635.5,606.5C 635.427,604.973 636.094,603.973 637.5,603.5 Z"/></g>
<g><path style="opacity:1" fill="#a1a0a1" d="M 650.5,598.5 C 649.387,602.299 647.054,605.299 643.5,607.5C 645.458,604.208 647.791,601.208 650.5,598.5 Z"/></g>
<g><path style="opacity:1" fill="#525051" d="M 563.5,606.5 C 563.027,607.906 562.027,608.573 560.5,608.5C 560.973,607.094 561.973,606.427 563.5,606.5 Z"/></g>
<g><path style="opacity:1" fill="#9c9c9c" d="M 604.5,603.5 C 603.59,607.065 601.59,609.732 598.5,611.5C 600.147,608.527 602.147,605.86 604.5,603.5 Z"/></g>
<g><path style="opacity:1" fill="#8a8a8a" d="M 643.5,607.5 C 642.833,608.833 641.833,609.833 640.5,610.5C 640.5,608.5 641.5,607.5 643.5,607.5 Z"/></g>
<g><path style="opacity:1" fill="#6d6d6d" d="M 634.5,609.5 C 634.573,611.027 633.906,612.027 632.5,612.5C 632.427,610.973 633.094,609.973 634.5,609.5 Z"/></g>
<g><path style="opacity:1" fill="#8e8e8e" d="M 640.5,610.5 C 638.1,613.903 635.1,616.57 631.5,618.5C 631.5,618.167 631.5,617.833 631.5,617.5C 634.233,614.761 637.233,612.427 640.5,610.5 Z"/></g>
<g><path style="opacity:1" fill="#5d5d5d" d="M 560.5,608.5 C 558.342,610.993 555.676,612.66 552.5,613.5C 554.629,611.05 557.296,609.383 560.5,608.5 Z"/></g>
<g><path style="opacity:1" fill="#a8a8a8" d="M 632.5,612.5 C 631.89,613.391 631.557,614.391 631.5,615.5C 631.167,615.5 630.833,615.5 630.5,615.5C 630.285,613.821 630.952,612.821 632.5,612.5 Z"/></g>
<g><path style="opacity:1" fill="#838383" d="M 593.5,617.5 C 593.027,618.906 592.027,619.573 590.5,619.5C 590.973,618.094 591.973,617.427 593.5,617.5 Z"/></g>
<g><path style="opacity:1" fill="#595959" d="M 630.5,615.5 C 630.833,615.5 631.167,615.5 631.5,615.5C 630.494,616.396 630.494,617.062 631.5,617.5C 631.5,617.833 631.5,618.167 631.5,618.5C 630.171,620.377 628.838,620.544 627.5,619C 628.371,617.636 629.371,616.47 630.5,615.5 Z"/></g>
<g><path style="opacity:1" fill="#8a8a8a" d="M 544.5,617.5 C 541.746,618.946 538.746,619.946 535.5,620.5C 538.008,618.446 541.008,617.446 544.5,617.5 Z"/></g>
<g><path style="opacity:1" fill="#eeeeee" d="M 520.5,621.5 C 518.833,622.167 517.167,622.833 515.5,623.5C 476.167,623.5 436.833,623.5 397.5,623.5C 438.343,622.787 479.343,622.12 520.5,621.5 Z"/></g>
<g><path style="opacity:1" fill="#c1c1c1" d="M 533.5,620.5 C 533.5,620.833 533.5,621.167 533.5,621.5C 529.147,622.059 524.814,622.725 520.5,623.5C 518.833,623.5 517.167,623.5 515.5,623.5C 517.167,622.833 518.833,622.167 520.5,621.5C 524.857,621.414 529.19,621.08 533.5,620.5 Z"/></g>
<g><path style="opacity:1" fill="#3a3a3a" d="M 533.5,621.5 C 533.082,622.222 532.416,622.722 531.5,623C 527.83,623.548 524.163,624.048 520.5,624.5C 520.5,624.167 520.5,623.833 520.5,623.5C 524.814,622.725 529.147,622.059 533.5,621.5 Z"/></g>
<g><path style="opacity:1" fill="#a6a6a6" d="M 590.5,620.5 C 587.735,624.598 584.068,627.598 579.5,629.5C 582.871,626.129 586.537,623.129 590.5,620.5 Z"/></g>
<g><path style="opacity:1" fill="#a0a0a0" d="M 576.5,631.5 C 575.415,633.587 573.749,634.92 571.5,635.5C 572.585,633.413 574.251,632.08 576.5,631.5 Z"/></g>
<g><path style="opacity:1" fill="#a2a2a2" d="M 569.5,636.5 C 566.857,639.46 563.524,641.127 559.5,641.5C 562.357,638.999 565.691,637.332 569.5,636.5 Z"/></g>
<g><path style="opacity:1" fill="#d2d1d1" d="M 559.5,641.5 C 557.544,644.766 554.544,646.432 550.5,646.5C 550.833,645.833 551.167,645.167 551.5,644.5C 554.167,643.5 556.833,642.5 559.5,641.5 Z"/></g>
<g><path style="opacity:1" fill="#585858" d="M 551.5,644.5 C 551.167,645.167 550.833,645.833 550.5,646.5C 549.5,646.5 548.5,646.5 547.5,646.5C 546.167,646.833 544.833,647.167 543.5,647.5C 543.611,646.883 543.944,646.383 544.5,646C 546.866,645.56 549.199,645.06 551.5,644.5 Z"/></g>
<g><path style="opacity:1" fill="#aeaeae" d="M 547.5,646.5 C 544.992,648.554 541.992,649.554 538.5,649.5C 539.78,648.069 541.447,647.402 543.5,647.5C 544.833,647.167 546.167,646.833 547.5,646.5 Z"/></g>
<g><path style="opacity:1" fill="#aaaaaa" d="M 537.5,649.5 C 537.082,650.222 536.416,650.722 535.5,651C 532.854,651.497 530.187,651.664 527.5,651.5C 526.167,651.5 524.833,651.5 523.5,651.5C 527.995,650.578 532.662,649.911 537.5,649.5 Z"/></g>
<g><path style="opacity:1" fill="#5b5b5b" d="M 397.5,623.5 C 436.833,623.5 476.167,623.5 515.5,623.5C 517.167,623.5 518.833,623.5 520.5,623.5C 520.5,623.833 520.5,624.167 520.5,624.5C 479.833,624.5 439.167,624.5 398.5,624.5C 398.5,633.5 398.5,642.5 398.5,651.5C 440.167,651.5 481.833,651.5 523.5,651.5C 481.67,652.499 439.67,652.832 397.5,652.5C 397.5,642.833 397.5,633.167 397.5,623.5 Z"/></g>
<g><path style="opacity:1" fill="#d2d2d2" d="M 523.5,651.5 C 524.833,651.5 526.167,651.5 527.5,651.5C 526.737,652.268 525.737,652.768 524.5,653C 481.998,653.831 439.665,653.665 397.5,652.5C 439.67,652.832 481.67,652.499 523.5,651.5 Z"/></g>
</svg>
