<?xml version="1.0" encoding="UTF-8"?>
<!DOCTYPE svg PUBLIC "-//W3C//DTD SVG 1.1//EN" "http://www.w3.org/Graphics/SVG/1.1/DTD/svg11.dtd">
<svg xmlns="http://www.w3.org/2000/svg" version="1.1" width="620px" height="532px" style="shape-rendering:geometricPrecision; text-rendering:geometricPrecision; image-rendering:optimizeQuality; fill-rule:evenodd; clip-rule:evenodd" xmlns:xlink="http://www.w3.org/1999/xlink">
<g><path style="opacity:1" fill="#f9f5f5" d="M -0.5,-0.5 C 206.167,-0.5 412.833,-0.5 619.5,-0.5C 619.5,176.833 619.5,354.167 619.5,531.5C 412.833,531.5 206.167,531.5 -0.5,531.5C -0.5,354.167 -0.5,176.833 -0.5,-0.5 Z"/></g>
<g><path style="opacity:1" fill="#020403" d="M 312.5,2.5 C 313.219,4.76375 313.552,7.09709 313.5,9.5C 302.555,9.24401 298.888,14.0773 302.5,24C 301.293,25.3002 300.626,26.8002 300.5,28.5C 232.665,28.1675 164.998,28.5008 97.5,29.5C 96.3054,29.8656 95.6387,30.699 95.5,32C 107.373,52.2802 118.873,72.7802 130,93.5C 135.072,94.4714 140.238,94.8047 145.5,94.5C 145.5,96.1667 145.5,97.8333 145.5,99.5C 131.5,99.5 117.5,99.5 103.5,99.5C 93.8946,82.0554 84.0613,64.7221 74,47.5C 72.7367,45.2031 70.9034,44.3698 68.5,45C 56.1049,65.6259 44.1049,86.4592 32.5,107.5C 42.9976,126.495 53.4976,145.495 64,164.5C 65.6196,166.241 67.1196,168.075 68.5,170C 70.1124,170.72 71.6124,170.554 73,169.5C 84.6667,149.5 96.3333,129.5 108,109.5C 108.295,106.758 107.462,104.425 105.5,102.5C 118.656,101.504 131.99,101.171 145.5,101.5C 145.5,107.833 145.5,114.167 145.5,120.5C 140.305,120.179 135.305,120.513 130.5,121.5C 118.235,141.613 106.568,162.113 95.5,183C 95.3866,184.699 96.0532,185.866 97.5,186.5C 143.665,187.333 189.998,187.833 236.5,188C 228.298,196.035 220.298,204.202 212.5,212.5C 191.831,212.333 171.164,212.5 150.5,213C 142.444,225.613 134.778,238.446 127.5,251.5C 125.72,250.01 125.054,248.01 125.5,245.5C 123.5,245.5 121.5,245.5 119.5,245.5C 119.5,248.167 119.5,250.833 119.5,253.5C 107.848,250.987 103.348,255.653 106,267.5C 107.625,270.147 109.959,271.814 113,272.5C 113.483,273.448 113.649,274.448 113.5,275.5C 86.0923,322.488 59.0923,369.655 32.5,417C 42.5927,436.015 53.0927,454.848 64,473.5C 65.6721,476.337 67.8387,478.67 70.5,480.5C 71.8139,479.687 72.9805,478.687 74,477.5C 83.6613,460.354 93.4946,443.354 103.5,426.5C 113.348,426.173 123.014,426.506 132.5,427.5C 120.588,448.595 108.422,469.595 96,490.5C 95.1231,492.674 95.6231,494.341 97.5,495.5C 164.665,496.499 231.998,496.832 299.5,496.5C 299.626,498.2 300.293,499.7 301.5,501C 298.12,509.004 300.787,513.504 309.5,514.5C 312.861,514.888 315.694,513.888 318,511.5C 318.957,506.556 319.457,501.556 319.5,496.5C 335.342,496.83 351.009,496.496 366.5,495.5C 392.884,494.214 418.218,488.714 442.5,479C 450.995,474.587 459.661,470.42 468.5,466.5C 469.117,466.611 469.617,466.944 470,467.5C 470.175,471.211 470.675,474.878 471.5,478.5C 472.494,473.544 472.827,468.544 472.5,463.5C 489.787,453.681 505.454,441.681 519.5,427.5C 521.117,426.962 522.784,426.629 524.5,426.5C 524.5,425.167 524.5,423.833 524.5,422.5C 559.133,384.236 579.966,339.569 587,288.5C 587.499,284.848 587.665,281.182 587.5,277.5C 588.461,275.735 588.795,273.735 588.5,271.5C 590.167,271.5 591.833,271.5 593.5,271.5C 593.5,265.167 593.5,258.833 593.5,252.5C 591.833,252.5 590.167,252.5 588.5,252.5C 588.784,250.585 588.451,248.919 587.5,247.5C 583.699,191.577 562.699,143.244 524.5,102.5C 524.512,99.858 523.179,98.5246 520.5,98.5C 505.944,84.2301 489.944,71.8967 472.5,61.5C 472.827,56.456 472.494,51.456 471.5,46.5C 470.675,50.1224 470.175,53.789 470,57.5C 469.617,58.056 469.117,58.3893 468.5,58.5C 442.927,45.0314 415.927,35.8647 387.5,31C 380.476,30.6752 373.476,30.1752 366.5,29.5C 351.342,28.5038 336.009,28.1705 320.5,28.5C 320.374,26.8002 319.707,25.3002 318.5,24C 321.961,18.031 320.628,13.531 314.5,10.5C 316.396,9.53443 318.396,9.2011 320.5,9.5C 320.85,6.54661 319.85,4.21328 317.5,2.5C 398.076,-4.858 468.743,17.642 529.5,70C 579.059,115.951 607.059,172.451 613.5,239.5C 613.5,243.833 613.5,248.167 613.5,252.5C 608.148,253.624 602.814,253.624 597.5,252.5C 597.5,258.833 597.5,265.167 597.5,271.5C 599.5,271.5 601.5,271.5 603.5,271.5C 603.133,267.033 603.633,262.7 605,258.5C 606.796,257.233 608.629,257.233 610.5,258.5C 612.252,267.428 613.252,276.428 613.5,285.5C 602.705,376.619 557.705,445.119 478.5,491C 446.257,508.12 411.924,518.453 375.5,522C 352.836,522.5 330.169,522.667 307.5,522.5C 306.659,520.621 306.325,518.621 306.5,516.5C 299.327,515.488 297.993,517.488 302.5,522.5C 222.263,522.832 142.096,522.498 62,521.5C 42.1783,486.527 22.345,451.527 2.5,416.5C 32.2961,363.581 62.6294,310.914 93.5,258.5C 95.4841,258.484 96.4841,259.484 96.5,261.5C 96.1688,264.674 96.1688,268.008 96.5,271.5C 98.1667,271.5 99.8333,271.5 101.5,271.5C 101.666,266.156 101.499,260.823 101,255.5C 100.241,253.937 99.0744,252.937 97.5,252.5C 102.47,242.563 107.97,232.896 114,223.5C 115.914,220.702 116.914,217.702 117,214.5C 116.5,214 116,213.5 115.5,213C 97.8333,212.667 80.1667,212.333 62.5,212C 42.1185,177.406 22.1185,142.573 2.5,107.5C 21.5724,72.35 41.4057,37.6833 62,3.5C 145.429,2.50162 228.929,2.16828 312.5,2.5 Z"/></g>
<g><path style="opacity:1" fill="#044732" d="M 312.5,2.5 C 314.167,2.5 315.833,2.5 317.5,2.5C 319.85,4.21328 320.85,6.54661 320.5,9.5C 318.396,9.2011 316.396,9.53443 314.5,10.5C 320.628,13.531 321.961,18.031 318.5,24C 319.707,25.3002 320.374,26.8002 320.5,28.5C 336.009,28.1705 351.342,28.5038 366.5,29.5C 276.833,29.5 187.167,29.5 97.5,29.5C 164.998,28.5008 232.665,28.1675 300.5,28.5C 300.626,26.8002 301.293,25.3002 302.5,24C 298.888,14.0773 302.555,9.24401 313.5,9.5C 313.552,7.09709 313.219,4.76375 312.5,2.5 Z"/></g>
<g><path style="opacity:1" fill="#010904" d="M 307.5,16.5 C 314.716,15.688 316.716,18.3546 313.5,24.5C 310.433,26.0521 307.933,25.3855 306,22.5C 305.252,20.1599 305.752,18.1599 307.5,16.5 Z"/></g>
<g><path style="opacity:1" fill="#faf6f6" d="M 97.5,29.5 C 187.167,29.5 276.833,29.5 366.5,29.5C 373.476,30.1752 380.476,30.6752 387.5,31C 415.927,35.8647 442.927,45.0314 468.5,58.5C 469.795,59.4884 471.128,60.4884 472.5,61.5C 489.944,71.8967 505.944,84.2301 520.5,98.5C 520.5,98.8333 520.5,99.1667 520.5,99.5C 504.5,99.5 488.5,99.5 472.5,99.5C 472.667,88.1618 472.5,76.8284 472,65.5C 470.523,76.6711 470.023,88.0044 470.5,99.5C 453.154,99.1672 435.821,99.5005 418.5,100.5C 435.921,101.407 453.254,101.74 470.5,101.5C 470.744,115.159 470.744,128.159 470.5,140.5C 427.599,103.411 377.599,88.0774 320.5,94.5C 314.167,94.5 307.833,94.5 301.5,94.5C 250.167,94.5 198.833,94.5 147.5,94.5C 146.833,94.5 146.167,94.5 145.5,94.5C 140.238,94.8047 135.072,94.4714 130,93.5C 118.873,72.7802 107.373,52.2802 95.5,32C 95.6387,30.699 96.3054,29.8656 97.5,29.5 Z"/></g>
<g><path style="opacity:1" fill="#003c1e" d="M 472.5,61.5 C 471.128,60.4884 469.795,59.4884 468.5,58.5C 469.117,58.3893 469.617,58.056 470,57.5C 470.175,53.789 470.675,50.1224 471.5,46.5C 472.494,51.456 472.827,56.456 472.5,61.5 Z"/></g>
<g><path style="opacity:1" fill="#10bccc" d="M 103.5,99.5 C 103.932,100.71 104.599,101.71 105.5,102.5C 107.462,104.425 108.295,106.758 108,109.5C 96.3333,129.5 84.6667,149.5 73,169.5C 71.6124,170.554 70.1124,170.72 68.5,170C 67.1196,168.075 65.6196,166.241 64,164.5C 53.4976,145.495 42.9976,126.495 32.5,107.5C 44.1049,86.4592 56.1049,65.6259 68.5,45C 70.9034,44.3698 72.7367,45.2031 74,47.5C 84.0613,64.7221 93.8946,82.0554 103.5,99.5 Z"/></g>
<g><path style="opacity:1" fill="#024e2b" d="M 520.5,99.5 C 520.5,99.1667 520.5,98.8333 520.5,98.5C 523.179,98.5246 524.512,99.858 524.5,102.5C 523.833,102.167 523.167,101.833 522.5,101.5C 522.167,100.5 521.5,99.8333 520.5,99.5 Z"/></g>
<g><path style="opacity:1" fill="#003a1b" d="M 145.5,94.5 C 146.167,94.5 146.833,94.5 147.5,94.5C 147.286,96.1439 147.62,97.6439 148.5,99C 165.51,99.1671 182.51,99.6671 199.5,100.5C 182.179,101.5 164.846,101.833 147.5,101.5C 147.5,107.833 147.5,114.167 147.5,120.5C 146.833,120.5 146.167,120.5 145.5,120.5C 145.5,114.167 145.5,107.833 145.5,101.5C 131.99,101.171 118.656,101.504 105.5,102.5C 104.599,101.71 103.932,100.71 103.5,99.5C 117.5,99.5 131.5,99.5 145.5,99.5C 145.5,97.8333 145.5,96.1667 145.5,94.5 Z"/></g>
<g><path style="opacity:1" fill="#e6e6eb" d="M 520.5,99.5 C 521.5,99.8333 522.167,100.5 522.5,101.5C 505.833,101.5 489.167,101.5 472.5,101.5C 472.419,115.333 472.419,129 472.5,142.5C 471.833,142.167 471.167,141.833 470.5,141.5C 470.5,141.167 470.5,140.833 470.5,140.5C 470.744,128.159 470.744,115.159 470.5,101.5C 453.254,101.74 435.921,101.407 418.5,100.5C 435.821,99.5005 453.154,99.1672 470.5,99.5C 470.023,88.0044 470.523,76.6711 472,65.5C 472.5,76.8284 472.667,88.1618 472.5,99.5C 488.5,99.5 504.5,99.5 520.5,99.5 Z"/></g>
<g><path style="opacity:1" fill="#099792" d="M 130.5,121.5 C 135.305,120.513 140.305,120.179 145.5,120.5C 146.167,120.5 146.833,120.5 147.5,120.5C 199.167,120.5 250.833,120.5 302.5,120.5C 307.833,120.5 313.167,120.5 318.5,120.5C 334.837,120.333 351.17,120.5 367.5,121C 370.365,121.183 373.031,121.683 375.5,122.5C 293.843,121.528 212.177,121.195 130.5,121.5 Z"/></g>
<g><path style="opacity:1" fill="#003b1c" d="M 470.5,141.5 C 471.167,141.833 471.833,142.167 472.5,142.5C 472.833,143.167 473.167,143.833 473.5,144.5C 472.834,147.358 472.167,150.358 471.5,153.5C 470.509,149.555 470.176,145.555 470.5,141.5 Z"/></g>
<g><path style="opacity:1" fill="#020503" d="M 147.5,94.5 C 198.833,94.5 250.167,94.5 301.5,94.5C 301.5,96.1667 301.5,97.8333 301.5,99.5C 305.182,99.3347 308.848,99.5014 312.5,100C 315.946,101.896 316.28,104.23 313.5,107C 309.179,107.499 304.846,107.666 300.5,107.5C 300.5,109.833 300.5,112.167 300.5,114.5C 305.511,114.666 310.511,114.499 315.5,114C 320.739,110.669 321.739,106.335 318.5,101C 320.003,99.0786 320.669,96.912 320.5,94.5C 377.599,88.0774 427.599,103.411 470.5,140.5C 470.5,140.833 470.5,141.167 470.5,141.5C 470.176,145.555 470.509,149.555 471.5,153.5C 472.167,150.358 472.834,147.358 473.5,144.5C 501.048,171.928 517.048,204.928 521.5,243.5C 521.813,246.247 521.48,248.914 520.5,251.5C 511.469,254.021 508.969,259.687 513,268.5C 515.305,270.93 518.138,271.93 521.5,271.5C 521.5,272.833 521.5,274.167 521.5,275.5C 518.189,316.446 502.189,351.446 473.5,380.5C 472.523,377.713 472.19,374.713 472.5,371.5C 471.5,371.5 470.5,371.5 469.5,371.5C 469.25,375.168 469.25,378.668 469.5,382C 468.201,383.326 466.868,384.66 465.5,386C 466.056,386.383 466.389,386.883 466.5,387.5C 440.285,411.218 409.618,425.052 374.5,429C 355.858,430.298 337.191,430.798 318.5,430.5C 318.5,428.833 318.5,427.167 318.5,425.5C 314.064,425.79 309.73,425.29 305.5,424C 304.065,421.733 304.398,419.733 306.5,418C 310.821,417.501 315.154,417.334 319.5,417.5C 319.5,415.5 319.5,413.5 319.5,411.5C 314.156,411.334 308.823,411.501 303.5,412C 299.048,415.377 298.382,419.377 301.5,424C 299.997,425.921 299.331,428.088 299.5,430.5C 269.593,430.829 239.76,430.495 210,429.5C 209.83,425.609 210.83,421.942 213,418.5C 226.095,396.924 238.928,375.258 251.5,353.5C 257.216,357.706 262.549,362.539 267.5,368C 268.332,368.688 268.998,368.521 269.5,367.5C 264.145,361.813 258.812,356.146 253.5,350.5C 279.029,305.591 304.362,260.757 329.5,216C 329.415,214.893 329.081,213.893 328.5,213C 304.5,212.333 280.5,212.333 256.5,213C 221.003,275.614 185.003,337.781 148.5,399.5C 147.948,390.51 147.282,381.177 146.5,371.5C 145.501,382.48 145.168,393.48 145.5,404.5C 141.846,411.14 138.179,417.806 134.5,424.5C 124.442,425.14 114.775,424.473 105.5,422.5C 145.288,353.76 184.955,284.926 224.5,216C 224.241,214.739 223.574,213.739 222.5,213C 220.19,212.503 217.857,212.337 215.5,212.5C 223.298,204.202 231.298,196.035 239.5,188C 280.499,187.5 321.499,187.333 362.5,187.5C 371.155,188.747 379.488,191.08 387.5,194.5C 396.091,204.759 405.424,214.426 415.5,223.5C 416.521,222.998 416.688,222.332 416,221.5C 411.055,216.39 405.888,211.39 400.5,206.5C 398.395,204.408 396.728,202.075 395.5,199.5C 423.75,219.01 434.583,245.677 428,279.5C 422.822,300.499 410.989,316.499 392.5,327.5C 392.062,327.565 391.728,327.399 391.5,327C 399.613,318.887 407.779,310.721 416,302.5C 416.688,301.668 416.521,301.002 415.5,300.5C 405.119,310.215 395.119,320.215 385.5,330.5C 378.47,334.554 370.803,337.054 362.5,338C 338.167,338.333 313.833,338.667 289.5,339C 277.371,359.448 265.704,380.115 254.5,401C 254.585,402.107 254.919,403.107 255.5,404C 270.83,404.5 286.163,404.667 301.5,404.5C 306.87,409.712 312.203,409.712 317.5,404.5C 361.512,410.51 401.845,401.344 438.5,377C 471.878,351.752 490.878,318.252 495.5,276.5C 496.99,271.923 497.656,267.09 497.5,262C 497.498,258.648 497.165,255.482 496.5,252.5C 489.638,194.149 459.305,153.316 405.5,130C 395.693,126.548 385.693,124.048 375.5,122.5C 373.031,121.683 370.365,121.183 367.5,121C 351.17,120.5 334.837,120.333 318.5,120.5C 317.942,119.21 316.942,118.377 315.5,118C 311.833,117.333 308.167,117.333 304.5,118C 303.619,118.708 302.953,119.542 302.5,120.5C 250.833,120.5 199.167,120.5 147.5,120.5C 147.5,114.167 147.5,107.833 147.5,101.5C 164.846,101.833 182.179,101.5 199.5,100.5C 182.51,99.6671 165.51,99.1671 148.5,99C 147.62,97.6439 147.286,96.1439 147.5,94.5 Z"/></g>
<g><path style="opacity:1" fill="#002a13" d="M 318.5,120.5 C 313.167,120.5 307.833,120.5 302.5,120.5C 302.953,119.542 303.619,118.708 304.5,118C 308.167,117.333 311.833,117.333 315.5,118C 316.942,118.377 317.942,119.21 318.5,120.5 Z"/></g>
<g><path style="opacity:1" fill="#002a12" d="M 301.5,94.5 C 307.833,94.5 314.167,94.5 320.5,94.5C 320.669,96.912 320.003,99.0786 318.5,101C 321.739,106.335 320.739,110.669 315.5,114C 310.511,114.499 305.511,114.666 300.5,114.5C 300.5,112.167 300.5,109.833 300.5,107.5C 304.846,107.666 309.179,107.499 313.5,107C 316.28,104.23 315.946,101.896 312.5,100C 308.848,99.5014 305.182,99.3347 301.5,99.5C 301.5,97.8333 301.5,96.1667 301.5,94.5 Z"/></g>
<g><path style="opacity:1" fill="#00371a" d="M 97.5,186.5 C 186.002,186.167 274.335,186.501 362.5,187.5C 321.499,187.333 280.499,187.5 239.5,188C 231.298,196.035 223.298,204.202 215.5,212.5C 214.5,212.5 213.5,212.5 212.5,212.5C 220.298,204.202 228.298,196.035 236.5,188C 189.998,187.833 143.665,187.333 97.5,186.5 Z"/></g>
<g><path style="opacity:1" fill="#012813" d="M 387.5,194.5 C 390.54,195.68 393.206,197.347 395.5,199.5C 396.728,202.075 398.395,204.408 400.5,206.5C 405.888,211.39 411.055,216.39 416,221.5C 416.688,222.332 416.521,222.998 415.5,223.5C 405.424,214.426 396.091,204.759 387.5,194.5 Z"/></g>
<g><path style="opacity:1" fill="#002c14" d="M 127.5,251.5 C 125.571,256.372 122.905,260.705 119.5,264.5C 120.133,258.791 117.8,256.791 112.5,258.5C 110.205,265.515 112.538,267.848 119.5,265.5C 117.988,269.201 115.988,272.534 113.5,275.5C 113.649,274.448 113.483,273.448 113,272.5C 109.959,271.814 107.625,270.147 106,267.5C 103.348,255.653 107.848,250.987 119.5,253.5C 119.5,250.833 119.5,248.167 119.5,245.5C 121.5,245.5 123.5,245.5 125.5,245.5C 125.054,248.01 125.72,250.01 127.5,251.5 Z"/></g>
<g><path style="opacity:1" fill="#012e16" d="M 613.5,239.5 C 614.833,254.833 614.833,270.167 613.5,285.5C 613.252,276.428 612.252,267.428 610.5,258.5C 608.629,257.233 606.796,257.233 605,258.5C 603.633,262.7 603.133,267.033 603.5,271.5C 601.5,271.5 599.5,271.5 597.5,271.5C 597.5,265.167 597.5,258.833 597.5,252.5C 602.814,253.624 608.148,253.624 613.5,252.5C 613.5,248.167 613.5,243.833 613.5,239.5 Z"/></g>
<g><path style="opacity:1" fill="#023e26" d="M 587.5,247.5 C 588.451,248.919 588.784,250.585 588.5,252.5C 590.167,252.5 591.833,252.5 593.5,252.5C 593.5,258.833 593.5,265.167 593.5,271.5C 591.833,271.5 590.167,271.5 588.5,271.5C 588.795,273.735 588.461,275.735 587.5,277.5C 587.5,267.5 587.5,257.5 587.5,247.5 Z"/></g>
<g><path style="opacity:1" fill="#000703" d="M 119.5,264.5 C 119.5,264.833 119.5,265.167 119.5,265.5C 112.538,267.848 110.205,265.515 112.5,258.5C 117.8,256.791 120.133,258.791 119.5,264.5 Z"/></g>
<g><path style="opacity:1" fill="#12bbcb" d="M 212.5,212.5 C 213.5,212.5 214.5,212.5 215.5,212.5C 217.857,212.337 220.19,212.503 222.5,213C 223.574,213.739 224.241,214.739 224.5,216C 184.955,284.926 145.288,353.76 105.5,422.5C 104.655,423.671 103.989,425.005 103.5,426.5C 93.4946,443.354 83.6613,460.354 74,477.5C 72.9805,478.687 71.8139,479.687 70.5,480.5C 67.8387,478.67 65.6721,476.337 64,473.5C 53.0927,454.848 42.5927,436.015 32.5,417C 59.0923,369.655 86.0923,322.488 113.5,275.5C 115.988,272.534 117.988,269.201 119.5,265.5C 119.5,265.167 119.5,264.833 119.5,264.5C 122.905,260.705 125.571,256.372 127.5,251.5C 134.778,238.446 142.444,225.613 150.5,213C 171.164,212.5 191.831,212.333 212.5,212.5 Z"/></g>
<g><path style="opacity:1" fill="#05bcce" d="M 168.5,224.5 C 175.508,224.334 182.508,224.5 189.5,225C 196.929,226.022 199.762,230.189 198,237.5C 194.447,246.274 190.114,254.607 185,262.5C 184.667,267.167 184.333,271.833 184,276.5C 181.573,279.57 178.406,281.404 174.5,282C 172.667,284.5 170.833,287 169,289.5C 139.109,341.475 109.776,392.142 81,441.5C 78.5535,445.784 75.0535,448.784 70.5,450.5C 64.5839,447.753 60.0839,443.419 57,437.5C 53.4096,431.227 50.9096,424.56 49.5,417.5C 51.2637,408.968 54.4303,400.968 59,393.5C 83.099,352.922 106.266,312.256 128.5,271.5C 129.189,266.282 129.856,261.116 130.5,256C 129.663,254.989 129.33,253.822 129.5,252.5C 131.833,252.5 134.167,252.5 136.5,252.5C 136.412,257.779 136.412,262.779 136.5,267.5C 137.321,264.553 137.821,261.553 138,258.5C 138.667,259.833 139.333,259.833 140,258.5C 140.287,256.109 140.787,253.776 141.5,251.5C 141.291,250.914 140.957,250.414 140.5,250C 145.219,242.228 150.885,235.228 157.5,229C 161.157,227.178 164.824,225.678 168.5,224.5 Z"/></g>
<g><path style="opacity:1" fill="#002e16" d="M 97.5,252.5 C 99.0744,252.937 100.241,253.937 101,255.5C 101.499,260.823 101.666,266.156 101.5,271.5C 99.8333,271.5 98.1667,271.5 96.5,271.5C 96.1688,268.008 96.1688,264.674 96.5,261.5C 96.4841,259.484 95.4841,258.484 93.5,258.5C 94.3403,256.147 95.6736,254.147 97.5,252.5 Z"/></g>
<g><path style="opacity:1" fill="#08bcce" d="M 130.5,121.5 C 212.177,121.195 293.843,121.528 375.5,122.5C 385.693,124.048 395.693,126.548 405.5,130C 459.305,153.316 489.638,194.149 496.5,252.5C 496.61,260.525 496.276,268.525 495.5,276.5C 490.878,318.252 471.878,351.752 438.5,377C 401.845,401.344 361.512,410.51 317.5,404.5C 312.167,404.5 306.833,404.5 301.5,404.5C 286.163,404.667 270.83,404.5 255.5,404C 254.919,403.107 254.585,402.107 254.5,401C 265.704,380.115 277.371,359.448 289.5,339C 313.833,338.667 338.167,338.333 362.5,338C 370.803,337.054 378.47,334.554 385.5,330.5C 388.241,330.293 390.574,329.293 392.5,327.5C 410.989,316.499 422.822,300.499 428,279.5C 434.583,245.677 423.75,219.01 395.5,199.5C 393.206,197.347 390.54,195.68 387.5,194.5C 379.488,191.08 371.155,188.747 362.5,187.5C 274.335,186.501 186.002,186.167 97.5,186.5C 96.0532,185.866 95.3866,184.699 95.5,183C 106.568,162.113 118.235,141.613 130.5,121.5 Z"/></g>
<g><path style="opacity:1" fill="#f9f5f5" d="M 522.5,101.5 C 523.167,101.833 523.833,102.167 524.5,102.5C 562.699,143.244 583.699,191.577 587.5,247.5C 587.5,257.5 587.5,267.5 587.5,277.5C 587.665,281.182 587.499,284.848 587,288.5C 579.966,339.569 559.133,384.236 524.5,422.5C 522.5,423.833 520.833,425.5 519.5,427.5C 505.454,441.681 489.787,453.681 472.5,463.5C 471.128,464.512 469.795,465.512 468.5,466.5C 459.661,470.42 450.995,474.587 442.5,479C 418.218,488.714 392.884,494.214 366.5,495.5C 276.833,495.5 187.167,495.5 97.5,495.5C 95.6231,494.341 95.1231,492.674 96,490.5C 108.422,469.595 120.588,448.595 132.5,427.5C 133.401,426.71 134.068,425.71 134.5,424.5C 138.179,417.806 141.846,411.14 145.5,404.5C 147.25,403.341 148.25,401.674 148.5,399.5C 185.003,337.781 221.003,275.614 256.5,213C 280.5,212.333 304.5,212.333 328.5,213C 329.081,213.893 329.415,214.893 329.5,216C 304.362,260.757 279.029,305.591 253.5,350.5C 252.094,350.973 251.427,351.973 251.5,353.5C 238.928,375.258 226.095,396.924 213,418.5C 210.83,421.942 209.83,425.609 210,429.5C 239.76,430.495 269.593,430.829 299.5,430.5C 305.833,430.5 312.167,430.5 318.5,430.5C 337.191,430.798 355.858,430.298 374.5,429C 409.618,425.052 440.285,411.218 466.5,387.5C 469.167,385.5 471.5,383.167 473.5,380.5C 502.189,351.446 518.189,316.446 521.5,275.5C 522.487,270.695 522.821,265.695 522.5,260.5C 522.5,259.167 522.5,257.833 522.5,256.5C 522.818,251.968 522.485,247.634 521.5,243.5C 517.048,204.928 501.048,171.928 473.5,144.5C 473.167,143.833 472.833,143.167 472.5,142.5C 472.419,129 472.419,115.333 472.5,101.5C 489.167,101.5 505.833,101.5 522.5,101.5 Z"/></g>
<g><path style="opacity:1" fill="#022c15" d="M 521.5,243.5 C 522.485,247.634 522.818,251.968 522.5,256.5C 520.088,256.244 518.421,257.244 517.5,259.5C 519.045,260.452 520.712,260.785 522.5,260.5C 522.821,265.695 522.487,270.695 521.5,275.5C 521.5,274.167 521.5,272.833 521.5,271.5C 518.138,271.93 515.305,270.93 513,268.5C 508.969,259.687 511.469,254.021 520.5,251.5C 521.48,248.914 521.813,246.247 521.5,243.5 Z"/></g>
<g><path style="opacity:1" fill="#000904" d="M 522.5,256.5 C 522.5,257.833 522.5,259.167 522.5,260.5C 520.712,260.785 519.045,260.452 517.5,259.5C 518.421,257.244 520.088,256.244 522.5,256.5 Z"/></g>
<g><path style="opacity:1" fill="#00371c" d="M 496.5,252.5 C 497.165,255.482 497.498,258.648 497.5,262C 497.656,267.09 496.99,271.923 495.5,276.5C 496.276,268.525 496.61,260.525 496.5,252.5 Z"/></g>
<g><path style="opacity:1" fill="#012a13" d="M 501.5,246.5 C 503.5,246.5 505.5,246.5 507.5,246.5C 507.5,255.167 507.5,263.833 507.5,272.5C 505.5,272.5 503.5,272.5 501.5,272.5C 501.5,263.833 501.5,255.167 501.5,246.5 Z"/></g>
<g><path style="opacity:1" fill="#f6f4f3" d="M 361.5,214.5 C 382.455,217.935 396.288,229.935 403,250.5C 406.469,283.444 392.303,303.944 360.5,312C 343.5,312.667 326.5,312.667 309.5,312C 307.169,309.21 307.336,306.376 310,303.5C 327.192,273.774 344.359,244.107 361.5,214.5 Z"/></g>
<g><path style="opacity:1" fill="#012a14" d="M 392.5,327.5 C 390.574,329.293 388.241,330.293 385.5,330.5C 395.119,320.215 405.119,310.215 415.5,300.5C 416.521,301.002 416.688,301.668 416,302.5C 407.779,310.721 399.613,318.887 391.5,327C 391.728,327.399 392.062,327.565 392.5,327.5 Z"/></g>
<g><path style="opacity:1" fill="#002712" d="M 253.5,350.5 C 258.812,356.146 264.145,361.813 269.5,367.5C 268.998,368.521 268.332,368.688 267.5,368C 262.549,362.539 257.216,357.706 251.5,353.5C 251.427,351.973 252.094,350.973 253.5,350.5 Z"/></g>
<g><path style="opacity:1" fill="#003e1e" d="M 148.5,399.5 C 148.25,401.674 147.25,403.341 145.5,404.5C 145.168,393.48 145.501,382.48 146.5,371.5C 147.282,381.177 147.948,390.51 148.5,399.5 Z"/></g>
<g><path style="opacity:1" fill="#092a18" d="M 473.5,380.5 C 471.5,383.167 469.167,385.5 466.5,387.5C 466.389,386.883 466.056,386.383 465.5,386C 466.868,384.66 468.201,383.326 469.5,382C 469.25,378.668 469.25,375.168 469.5,371.5C 470.5,371.5 471.5,371.5 472.5,371.5C 472.19,374.713 472.523,377.713 473.5,380.5 Z"/></g>
<g><path style="opacity:1" fill="#002b14" d="M 301.5,404.5 C 306.833,404.5 312.167,404.5 317.5,404.5C 312.203,409.712 306.87,409.712 301.5,404.5 Z"/></g>
<g><path style="opacity:1" fill="#002b13" d="M 318.5,430.5 C 312.167,430.5 305.833,430.5 299.5,430.5C 299.331,428.088 299.997,425.921 301.5,424C 298.382,419.377 299.048,415.377 303.5,412C 308.823,411.501 314.156,411.334 319.5,411.5C 319.5,413.5 319.5,415.5 319.5,417.5C 315.154,417.334 310.821,417.501 306.5,418C 304.398,419.733 304.065,421.733 305.5,424C 309.73,425.29 314.064,425.79 318.5,425.5C 318.5,427.167 318.5,428.833 318.5,430.5 Z"/></g>
<g><path style="opacity:1" fill="#003c1d" d="M 105.5,422.5 C 114.775,424.473 124.442,425.14 134.5,424.5C 134.068,425.71 133.401,426.71 132.5,427.5C 123.014,426.506 113.348,426.173 103.5,426.5C 103.989,425.005 104.655,423.671 105.5,422.5 Z"/></g>
<g><path style="opacity:1" fill="#054428" d="M 524.5,422.5 C 524.5,423.833 524.5,425.167 524.5,426.5C 522.784,426.629 521.117,426.962 519.5,427.5C 520.833,425.5 522.5,423.833 524.5,422.5 Z"/></g>
<g><path style="opacity:1" fill="#003a1c" d="M 472.5,463.5 C 472.827,468.544 472.494,473.544 471.5,478.5C 470.675,474.878 470.175,471.211 470,467.5C 469.617,466.944 469.117,466.611 468.5,466.5C 469.795,465.512 471.128,464.512 472.5,463.5 Z"/></g>
<g><path style="opacity:1" fill="#034a34" d="M 97.5,495.5 C 187.167,495.5 276.833,495.5 366.5,495.5C 351.009,496.496 335.342,496.83 319.5,496.5C 319.457,501.556 318.957,506.556 318,511.5C 315.694,513.888 312.861,514.888 309.5,514.5C 300.787,513.504 298.12,509.004 301.5,501C 300.293,499.7 299.626,498.2 299.5,496.5C 231.998,496.832 164.665,496.499 97.5,495.5 Z"/></g>
<g><path style="opacity:1" fill="#010603" d="M 306.5,500.5 C 311.993,499.178 314.493,501.178 314,506.5C 309.848,509.601 306.682,508.768 304.5,504C 304.978,502.697 305.645,501.531 306.5,500.5 Z"/></g>
<g><path style="opacity:1" fill="#002a12" d="M 307.5,522.5 C 305.833,522.5 304.167,522.5 302.5,522.5C 297.993,517.488 299.327,515.488 306.5,516.5C 306.325,518.621 306.659,520.621 307.5,522.5 Z"/></g>
</svg>
